<mxfile host="app.diagrams.net" agent="Mozilla/5.0 (Windows NT 10.0; Win64; x64) AppleWebKit/537.36 (KHTML, like Gecko) Chrome/131.0.0.0 Safari/537.36" version="25.0.3">
  <diagram name="Page-1" id="skQ6Bqla_CH4Cx-famLH">
    <mxGraphModel dx="683" dy="355" grid="1" gridSize="10" guides="1" tooltips="1" connect="1" arrows="1" fold="1" page="1" pageScale="1" pageWidth="850" pageHeight="1100" math="0" shadow="0">
      <root>
        <mxCell id="0" />
        <mxCell id="1" parent="0" />
        <mxCell id="QPa2e-_EbMcNQabbTF7_-1" value="line_buffer_0" style="rounded=0;whiteSpace=wrap;html=1;" parent="1" vertex="1">
          <mxGeometry x="80" y="350" width="120" height="40" as="geometry" />
        </mxCell>
        <mxCell id="QPa2e-_EbMcNQabbTF7_-2" value="line_buffer_1" style="rounded=0;whiteSpace=wrap;html=1;" parent="1" vertex="1">
          <mxGeometry x="80" y="430" width="120" height="40" as="geometry" />
        </mxCell>
        <mxCell id="QPa2e-_EbMcNQabbTF7_-40" value="d48" style="rounded=0;whiteSpace=wrap;html=1;" parent="1" vertex="1">
          <mxGeometry x="250" y="350" width="40" height="40" as="geometry" />
        </mxCell>
        <mxCell id="QPa2e-_EbMcNQabbTF7_-41" value="" style="endArrow=classic;html=1;rounded=0;exitX=1;exitY=0.5;exitDx=0;exitDy=0;" parent="1" source="QPa2e-_EbMcNQabbTF7_-40" edge="1">
          <mxGeometry width="50" height="50" relative="1" as="geometry">
            <mxPoint x="310" y="370" as="sourcePoint" />
            <mxPoint x="330" y="370" as="targetPoint" />
          </mxGeometry>
        </mxCell>
        <mxCell id="QPa2e-_EbMcNQabbTF7_-45" value="" style="endArrow=classic;html=1;rounded=0;exitX=1;exitY=0.5;exitDx=0;exitDy=0;entryX=0;entryY=0.5;entryDx=0;entryDy=0;" parent="1" source="QPa2e-_EbMcNQabbTF7_-1" target="QPa2e-_EbMcNQabbTF7_-40" edge="1">
          <mxGeometry width="50" height="50" relative="1" as="geometry">
            <mxPoint x="450" y="500" as="sourcePoint" />
            <mxPoint x="500" y="450" as="targetPoint" />
          </mxGeometry>
        </mxCell>
        <mxCell id="QPa2e-_EbMcNQabbTF7_-53" value="line_buffer_2" style="rounded=0;whiteSpace=wrap;html=1;" parent="1" vertex="1">
          <mxGeometry x="80" y="510" width="120" height="40" as="geometry" />
        </mxCell>
        <mxCell id="QPa2e-_EbMcNQabbTF7_-60" value="line_buffer_3" style="rounded=0;whiteSpace=wrap;html=1;" parent="1" vertex="1">
          <mxGeometry x="80" y="590" width="120" height="40" as="geometry" />
        </mxCell>
        <mxCell id="QPa2e-_EbMcNQabbTF7_-74" value="line_buffer_4" style="rounded=0;whiteSpace=wrap;html=1;" parent="1" vertex="1">
          <mxGeometry x="80" y="670" width="120" height="40" as="geometry" />
        </mxCell>
        <mxCell id="QPa2e-_EbMcNQabbTF7_-81" value="line_buffer_5" style="rounded=0;whiteSpace=wrap;html=1;" parent="1" vertex="1">
          <mxGeometry x="80" y="750" width="120" height="40" as="geometry" />
        </mxCell>
        <mxCell id="QPa2e-_EbMcNQabbTF7_-88" value="line_buffer_6" style="rounded=0;whiteSpace=wrap;html=1;" parent="1" vertex="1">
          <mxGeometry x="80" y="830" width="120" height="40" as="geometry" />
        </mxCell>
        <mxCell id="QPa2e-_EbMcNQabbTF7_-102" value="d47" style="rounded=0;whiteSpace=wrap;html=1;" parent="1" vertex="1">
          <mxGeometry x="330" y="350" width="40" height="40" as="geometry" />
        </mxCell>
        <mxCell id="QPa2e-_EbMcNQabbTF7_-103" value="" style="endArrow=classic;html=1;rounded=0;exitX=1;exitY=0.5;exitDx=0;exitDy=0;" parent="1" edge="1">
          <mxGeometry width="50" height="50" relative="1" as="geometry">
            <mxPoint x="370" y="370" as="sourcePoint" />
            <mxPoint x="410" y="370" as="targetPoint" />
          </mxGeometry>
        </mxCell>
        <mxCell id="QPa2e-_EbMcNQabbTF7_-104" value="d46" style="rounded=0;whiteSpace=wrap;html=1;" parent="1" vertex="1">
          <mxGeometry x="410" y="350" width="40" height="40" as="geometry" />
        </mxCell>
        <mxCell id="QPa2e-_EbMcNQabbTF7_-107" value="" style="endArrow=classic;html=1;rounded=0;exitX=1;exitY=0.5;exitDx=0;exitDy=0;" parent="1" edge="1">
          <mxGeometry width="50" height="50" relative="1" as="geometry">
            <mxPoint x="450" y="370" as="sourcePoint" />
            <mxPoint x="490" y="370" as="targetPoint" />
          </mxGeometry>
        </mxCell>
        <mxCell id="QPa2e-_EbMcNQabbTF7_-108" value="d45" style="rounded=0;whiteSpace=wrap;html=1;" parent="1" vertex="1">
          <mxGeometry x="490" y="350" width="40" height="40" as="geometry" />
        </mxCell>
        <mxCell id="QPa2e-_EbMcNQabbTF7_-109" value="" style="endArrow=classic;html=1;rounded=0;exitX=1;exitY=0.5;exitDx=0;exitDy=0;" parent="1" edge="1">
          <mxGeometry width="50" height="50" relative="1" as="geometry">
            <mxPoint x="530" y="370" as="sourcePoint" />
            <mxPoint x="570" y="370" as="targetPoint" />
          </mxGeometry>
        </mxCell>
        <mxCell id="QPa2e-_EbMcNQabbTF7_-110" value="d44" style="rounded=0;whiteSpace=wrap;html=1;" parent="1" vertex="1">
          <mxGeometry x="570" y="350" width="40" height="40" as="geometry" />
        </mxCell>
        <mxCell id="QPa2e-_EbMcNQabbTF7_-111" value="" style="endArrow=classic;html=1;rounded=0;exitX=1;exitY=0.5;exitDx=0;exitDy=0;" parent="1" edge="1">
          <mxGeometry width="50" height="50" relative="1" as="geometry">
            <mxPoint x="610" y="370" as="sourcePoint" />
            <mxPoint x="650" y="370" as="targetPoint" />
          </mxGeometry>
        </mxCell>
        <mxCell id="QPa2e-_EbMcNQabbTF7_-112" value="d43" style="rounded=0;whiteSpace=wrap;html=1;" parent="1" vertex="1">
          <mxGeometry x="650" y="350" width="40" height="40" as="geometry" />
        </mxCell>
        <mxCell id="QPa2e-_EbMcNQabbTF7_-113" value="" style="endArrow=classic;html=1;rounded=0;exitX=1;exitY=0.5;exitDx=0;exitDy=0;" parent="1" edge="1">
          <mxGeometry width="50" height="50" relative="1" as="geometry">
            <mxPoint x="690" y="370" as="sourcePoint" />
            <mxPoint x="730" y="370" as="targetPoint" />
          </mxGeometry>
        </mxCell>
        <mxCell id="QPa2e-_EbMcNQabbTF7_-114" value="d42" style="rounded=0;whiteSpace=wrap;html=1;" parent="1" vertex="1">
          <mxGeometry x="730" y="350" width="40" height="40" as="geometry" />
        </mxCell>
        <mxCell id="QPa2e-_EbMcNQabbTF7_-117" value="d41" style="rounded=0;whiteSpace=wrap;html=1;" parent="1" vertex="1">
          <mxGeometry x="250" y="430" width="40" height="40" as="geometry" />
        </mxCell>
        <mxCell id="QPa2e-_EbMcNQabbTF7_-118" value="" style="endArrow=classic;html=1;rounded=0;exitX=1;exitY=0.5;exitDx=0;exitDy=0;" parent="1" source="QPa2e-_EbMcNQabbTF7_-117" edge="1">
          <mxGeometry width="50" height="50" relative="1" as="geometry">
            <mxPoint x="310" y="450" as="sourcePoint" />
            <mxPoint x="330" y="450" as="targetPoint" />
          </mxGeometry>
        </mxCell>
        <mxCell id="QPa2e-_EbMcNQabbTF7_-119" value="" style="endArrow=classic;html=1;rounded=0;exitX=1;exitY=0.5;exitDx=0;exitDy=0;entryX=0;entryY=0.5;entryDx=0;entryDy=0;" parent="1" target="QPa2e-_EbMcNQabbTF7_-117" edge="1">
          <mxGeometry width="50" height="50" relative="1" as="geometry">
            <mxPoint x="200" y="450" as="sourcePoint" />
            <mxPoint x="500" y="530" as="targetPoint" />
          </mxGeometry>
        </mxCell>
        <mxCell id="QPa2e-_EbMcNQabbTF7_-120" value="d40" style="rounded=0;whiteSpace=wrap;html=1;" parent="1" vertex="1">
          <mxGeometry x="330" y="430" width="40" height="40" as="geometry" />
        </mxCell>
        <mxCell id="QPa2e-_EbMcNQabbTF7_-121" value="" style="endArrow=classic;html=1;rounded=0;exitX=1;exitY=0.5;exitDx=0;exitDy=0;" parent="1" edge="1">
          <mxGeometry width="50" height="50" relative="1" as="geometry">
            <mxPoint x="370" y="450" as="sourcePoint" />
            <mxPoint x="410" y="450" as="targetPoint" />
          </mxGeometry>
        </mxCell>
        <mxCell id="QPa2e-_EbMcNQabbTF7_-122" value="d39" style="rounded=0;whiteSpace=wrap;html=1;" parent="1" vertex="1">
          <mxGeometry x="410" y="430" width="40" height="40" as="geometry" />
        </mxCell>
        <mxCell id="QPa2e-_EbMcNQabbTF7_-123" value="" style="endArrow=classic;html=1;rounded=0;exitX=1;exitY=0.5;exitDx=0;exitDy=0;" parent="1" edge="1">
          <mxGeometry width="50" height="50" relative="1" as="geometry">
            <mxPoint x="450" y="450" as="sourcePoint" />
            <mxPoint x="490" y="450" as="targetPoint" />
          </mxGeometry>
        </mxCell>
        <mxCell id="QPa2e-_EbMcNQabbTF7_-124" value="d38" style="rounded=0;whiteSpace=wrap;html=1;" parent="1" vertex="1">
          <mxGeometry x="490" y="430" width="40" height="40" as="geometry" />
        </mxCell>
        <mxCell id="QPa2e-_EbMcNQabbTF7_-125" value="" style="endArrow=classic;html=1;rounded=0;exitX=1;exitY=0.5;exitDx=0;exitDy=0;" parent="1" edge="1">
          <mxGeometry width="50" height="50" relative="1" as="geometry">
            <mxPoint x="530" y="450" as="sourcePoint" />
            <mxPoint x="570" y="450" as="targetPoint" />
          </mxGeometry>
        </mxCell>
        <mxCell id="QPa2e-_EbMcNQabbTF7_-126" value="d37" style="rounded=0;whiteSpace=wrap;html=1;" parent="1" vertex="1">
          <mxGeometry x="570" y="430" width="40" height="40" as="geometry" />
        </mxCell>
        <mxCell id="QPa2e-_EbMcNQabbTF7_-127" value="" style="endArrow=classic;html=1;rounded=0;exitX=1;exitY=0.5;exitDx=0;exitDy=0;" parent="1" edge="1">
          <mxGeometry width="50" height="50" relative="1" as="geometry">
            <mxPoint x="610" y="450" as="sourcePoint" />
            <mxPoint x="650" y="450" as="targetPoint" />
          </mxGeometry>
        </mxCell>
        <mxCell id="QPa2e-_EbMcNQabbTF7_-128" value="d36" style="rounded=0;whiteSpace=wrap;html=1;" parent="1" vertex="1">
          <mxGeometry x="650" y="430" width="40" height="40" as="geometry" />
        </mxCell>
        <mxCell id="QPa2e-_EbMcNQabbTF7_-129" value="" style="endArrow=classic;html=1;rounded=0;exitX=1;exitY=0.5;exitDx=0;exitDy=0;" parent="1" edge="1">
          <mxGeometry width="50" height="50" relative="1" as="geometry">
            <mxPoint x="690" y="450" as="sourcePoint" />
            <mxPoint x="730" y="450" as="targetPoint" />
          </mxGeometry>
        </mxCell>
        <mxCell id="QPa2e-_EbMcNQabbTF7_-130" value="d35" style="rounded=0;whiteSpace=wrap;html=1;" parent="1" vertex="1">
          <mxGeometry x="730" y="430" width="40" height="40" as="geometry" />
        </mxCell>
        <mxCell id="QPa2e-_EbMcNQabbTF7_-131" value="d34" style="rounded=0;whiteSpace=wrap;html=1;" parent="1" vertex="1">
          <mxGeometry x="250" y="510" width="40" height="40" as="geometry" />
        </mxCell>
        <mxCell id="QPa2e-_EbMcNQabbTF7_-132" value="" style="endArrow=classic;html=1;rounded=0;exitX=1;exitY=0.5;exitDx=0;exitDy=0;" parent="1" source="QPa2e-_EbMcNQabbTF7_-131" edge="1">
          <mxGeometry width="50" height="50" relative="1" as="geometry">
            <mxPoint x="310" y="530" as="sourcePoint" />
            <mxPoint x="330" y="530" as="targetPoint" />
          </mxGeometry>
        </mxCell>
        <mxCell id="QPa2e-_EbMcNQabbTF7_-133" value="" style="endArrow=classic;html=1;rounded=0;exitX=1;exitY=0.5;exitDx=0;exitDy=0;entryX=0;entryY=0.5;entryDx=0;entryDy=0;" parent="1" target="QPa2e-_EbMcNQabbTF7_-131" edge="1">
          <mxGeometry width="50" height="50" relative="1" as="geometry">
            <mxPoint x="200" y="530" as="sourcePoint" />
            <mxPoint x="500" y="610" as="targetPoint" />
          </mxGeometry>
        </mxCell>
        <mxCell id="QPa2e-_EbMcNQabbTF7_-134" value="d33" style="rounded=0;whiteSpace=wrap;html=1;" parent="1" vertex="1">
          <mxGeometry x="330" y="510" width="40" height="40" as="geometry" />
        </mxCell>
        <mxCell id="QPa2e-_EbMcNQabbTF7_-135" value="" style="endArrow=classic;html=1;rounded=0;exitX=1;exitY=0.5;exitDx=0;exitDy=0;" parent="1" edge="1">
          <mxGeometry width="50" height="50" relative="1" as="geometry">
            <mxPoint x="370" y="530" as="sourcePoint" />
            <mxPoint x="410" y="530" as="targetPoint" />
          </mxGeometry>
        </mxCell>
        <mxCell id="QPa2e-_EbMcNQabbTF7_-136" value="d32" style="rounded=0;whiteSpace=wrap;html=1;" parent="1" vertex="1">
          <mxGeometry x="410" y="510" width="40" height="40" as="geometry" />
        </mxCell>
        <mxCell id="QPa2e-_EbMcNQabbTF7_-137" value="" style="endArrow=classic;html=1;rounded=0;exitX=1;exitY=0.5;exitDx=0;exitDy=0;" parent="1" edge="1">
          <mxGeometry width="50" height="50" relative="1" as="geometry">
            <mxPoint x="450" y="530" as="sourcePoint" />
            <mxPoint x="490" y="530" as="targetPoint" />
          </mxGeometry>
        </mxCell>
        <mxCell id="QPa2e-_EbMcNQabbTF7_-138" value="d31" style="rounded=0;whiteSpace=wrap;html=1;" parent="1" vertex="1">
          <mxGeometry x="490" y="510" width="40" height="40" as="geometry" />
        </mxCell>
        <mxCell id="QPa2e-_EbMcNQabbTF7_-139" value="" style="endArrow=classic;html=1;rounded=0;exitX=1;exitY=0.5;exitDx=0;exitDy=0;" parent="1" edge="1">
          <mxGeometry width="50" height="50" relative="1" as="geometry">
            <mxPoint x="530" y="530" as="sourcePoint" />
            <mxPoint x="570" y="530" as="targetPoint" />
          </mxGeometry>
        </mxCell>
        <mxCell id="QPa2e-_EbMcNQabbTF7_-140" value="d30" style="rounded=0;whiteSpace=wrap;html=1;" parent="1" vertex="1">
          <mxGeometry x="570" y="510" width="40" height="40" as="geometry" />
        </mxCell>
        <mxCell id="QPa2e-_EbMcNQabbTF7_-141" value="" style="endArrow=classic;html=1;rounded=0;exitX=1;exitY=0.5;exitDx=0;exitDy=0;" parent="1" edge="1">
          <mxGeometry width="50" height="50" relative="1" as="geometry">
            <mxPoint x="610" y="530" as="sourcePoint" />
            <mxPoint x="650" y="530" as="targetPoint" />
          </mxGeometry>
        </mxCell>
        <mxCell id="QPa2e-_EbMcNQabbTF7_-142" value="d29" style="rounded=0;whiteSpace=wrap;html=1;" parent="1" vertex="1">
          <mxGeometry x="650" y="510" width="40" height="40" as="geometry" />
        </mxCell>
        <mxCell id="QPa2e-_EbMcNQabbTF7_-143" value="" style="endArrow=classic;html=1;rounded=0;exitX=1;exitY=0.5;exitDx=0;exitDy=0;" parent="1" edge="1">
          <mxGeometry width="50" height="50" relative="1" as="geometry">
            <mxPoint x="690" y="530" as="sourcePoint" />
            <mxPoint x="730" y="530" as="targetPoint" />
          </mxGeometry>
        </mxCell>
        <mxCell id="QPa2e-_EbMcNQabbTF7_-144" value="d28" style="rounded=0;whiteSpace=wrap;html=1;" parent="1" vertex="1">
          <mxGeometry x="730" y="510" width="40" height="40" as="geometry" />
        </mxCell>
        <mxCell id="QPa2e-_EbMcNQabbTF7_-145" value="d27" style="rounded=0;whiteSpace=wrap;html=1;" parent="1" vertex="1">
          <mxGeometry x="250" y="590" width="40" height="40" as="geometry" />
        </mxCell>
        <mxCell id="QPa2e-_EbMcNQabbTF7_-146" value="" style="endArrow=classic;html=1;rounded=0;exitX=1;exitY=0.5;exitDx=0;exitDy=0;" parent="1" source="QPa2e-_EbMcNQabbTF7_-145" edge="1">
          <mxGeometry width="50" height="50" relative="1" as="geometry">
            <mxPoint x="310" y="610" as="sourcePoint" />
            <mxPoint x="330" y="610" as="targetPoint" />
          </mxGeometry>
        </mxCell>
        <mxCell id="QPa2e-_EbMcNQabbTF7_-147" value="" style="endArrow=classic;html=1;rounded=0;exitX=1;exitY=0.5;exitDx=0;exitDy=0;entryX=0;entryY=0.5;entryDx=0;entryDy=0;" parent="1" target="QPa2e-_EbMcNQabbTF7_-145" edge="1">
          <mxGeometry width="50" height="50" relative="1" as="geometry">
            <mxPoint x="200" y="610" as="sourcePoint" />
            <mxPoint x="500" y="690" as="targetPoint" />
          </mxGeometry>
        </mxCell>
        <mxCell id="QPa2e-_EbMcNQabbTF7_-148" value="d26" style="rounded=0;whiteSpace=wrap;html=1;" parent="1" vertex="1">
          <mxGeometry x="330" y="590" width="40" height="40" as="geometry" />
        </mxCell>
        <mxCell id="QPa2e-_EbMcNQabbTF7_-149" value="" style="endArrow=classic;html=1;rounded=0;exitX=1;exitY=0.5;exitDx=0;exitDy=0;" parent="1" edge="1">
          <mxGeometry width="50" height="50" relative="1" as="geometry">
            <mxPoint x="370" y="610" as="sourcePoint" />
            <mxPoint x="410" y="610" as="targetPoint" />
          </mxGeometry>
        </mxCell>
        <mxCell id="QPa2e-_EbMcNQabbTF7_-150" value="d25" style="rounded=0;whiteSpace=wrap;html=1;" parent="1" vertex="1">
          <mxGeometry x="410" y="590" width="40" height="40" as="geometry" />
        </mxCell>
        <mxCell id="QPa2e-_EbMcNQabbTF7_-151" value="" style="endArrow=classic;html=1;rounded=0;exitX=1;exitY=0.5;exitDx=0;exitDy=0;" parent="1" edge="1">
          <mxGeometry width="50" height="50" relative="1" as="geometry">
            <mxPoint x="450" y="610" as="sourcePoint" />
            <mxPoint x="490" y="610" as="targetPoint" />
          </mxGeometry>
        </mxCell>
        <mxCell id="QPa2e-_EbMcNQabbTF7_-152" value="d24" style="rounded=0;whiteSpace=wrap;html=1;" parent="1" vertex="1">
          <mxGeometry x="490" y="590" width="40" height="40" as="geometry" />
        </mxCell>
        <mxCell id="QPa2e-_EbMcNQabbTF7_-153" value="" style="endArrow=classic;html=1;rounded=0;exitX=1;exitY=0.5;exitDx=0;exitDy=0;" parent="1" edge="1">
          <mxGeometry width="50" height="50" relative="1" as="geometry">
            <mxPoint x="530" y="610" as="sourcePoint" />
            <mxPoint x="570" y="610" as="targetPoint" />
          </mxGeometry>
        </mxCell>
        <mxCell id="QPa2e-_EbMcNQabbTF7_-154" value="d23" style="rounded=0;whiteSpace=wrap;html=1;" parent="1" vertex="1">
          <mxGeometry x="570" y="590" width="40" height="40" as="geometry" />
        </mxCell>
        <mxCell id="QPa2e-_EbMcNQabbTF7_-155" value="" style="endArrow=classic;html=1;rounded=0;exitX=1;exitY=0.5;exitDx=0;exitDy=0;" parent="1" edge="1">
          <mxGeometry width="50" height="50" relative="1" as="geometry">
            <mxPoint x="610" y="610" as="sourcePoint" />
            <mxPoint x="650" y="610" as="targetPoint" />
          </mxGeometry>
        </mxCell>
        <mxCell id="QPa2e-_EbMcNQabbTF7_-156" value="d22" style="rounded=0;whiteSpace=wrap;html=1;" parent="1" vertex="1">
          <mxGeometry x="650" y="590" width="40" height="40" as="geometry" />
        </mxCell>
        <mxCell id="QPa2e-_EbMcNQabbTF7_-157" value="" style="endArrow=classic;html=1;rounded=0;exitX=1;exitY=0.5;exitDx=0;exitDy=0;" parent="1" edge="1">
          <mxGeometry width="50" height="50" relative="1" as="geometry">
            <mxPoint x="690" y="610" as="sourcePoint" />
            <mxPoint x="730" y="610" as="targetPoint" />
          </mxGeometry>
        </mxCell>
        <mxCell id="QPa2e-_EbMcNQabbTF7_-158" value="d21" style="rounded=0;whiteSpace=wrap;html=1;" parent="1" vertex="1">
          <mxGeometry x="730" y="590" width="40" height="40" as="geometry" />
        </mxCell>
        <mxCell id="QPa2e-_EbMcNQabbTF7_-159" value="d20" style="rounded=0;whiteSpace=wrap;html=1;" parent="1" vertex="1">
          <mxGeometry x="250" y="670" width="40" height="40" as="geometry" />
        </mxCell>
        <mxCell id="QPa2e-_EbMcNQabbTF7_-160" value="" style="endArrow=classic;html=1;rounded=0;exitX=1;exitY=0.5;exitDx=0;exitDy=0;" parent="1" source="QPa2e-_EbMcNQabbTF7_-159" edge="1">
          <mxGeometry width="50" height="50" relative="1" as="geometry">
            <mxPoint x="310" y="690" as="sourcePoint" />
            <mxPoint x="330" y="690" as="targetPoint" />
          </mxGeometry>
        </mxCell>
        <mxCell id="QPa2e-_EbMcNQabbTF7_-161" value="" style="endArrow=classic;html=1;rounded=0;exitX=1;exitY=0.5;exitDx=0;exitDy=0;entryX=0;entryY=0.5;entryDx=0;entryDy=0;" parent="1" target="QPa2e-_EbMcNQabbTF7_-159" edge="1">
          <mxGeometry width="50" height="50" relative="1" as="geometry">
            <mxPoint x="200" y="690" as="sourcePoint" />
            <mxPoint x="500" y="770" as="targetPoint" />
          </mxGeometry>
        </mxCell>
        <mxCell id="QPa2e-_EbMcNQabbTF7_-162" value="d19" style="rounded=0;whiteSpace=wrap;html=1;" parent="1" vertex="1">
          <mxGeometry x="330" y="670" width="40" height="40" as="geometry" />
        </mxCell>
        <mxCell id="QPa2e-_EbMcNQabbTF7_-163" value="" style="endArrow=classic;html=1;rounded=0;exitX=1;exitY=0.5;exitDx=0;exitDy=0;" parent="1" edge="1">
          <mxGeometry width="50" height="50" relative="1" as="geometry">
            <mxPoint x="370" y="690" as="sourcePoint" />
            <mxPoint x="410" y="690" as="targetPoint" />
          </mxGeometry>
        </mxCell>
        <mxCell id="QPa2e-_EbMcNQabbTF7_-164" value="d18" style="rounded=0;whiteSpace=wrap;html=1;" parent="1" vertex="1">
          <mxGeometry x="410" y="670" width="40" height="40" as="geometry" />
        </mxCell>
        <mxCell id="QPa2e-_EbMcNQabbTF7_-165" value="" style="endArrow=classic;html=1;rounded=0;exitX=1;exitY=0.5;exitDx=0;exitDy=0;" parent="1" edge="1">
          <mxGeometry width="50" height="50" relative="1" as="geometry">
            <mxPoint x="450" y="690" as="sourcePoint" />
            <mxPoint x="490" y="690" as="targetPoint" />
          </mxGeometry>
        </mxCell>
        <mxCell id="QPa2e-_EbMcNQabbTF7_-166" value="d17" style="rounded=0;whiteSpace=wrap;html=1;" parent="1" vertex="1">
          <mxGeometry x="490" y="670" width="40" height="40" as="geometry" />
        </mxCell>
        <mxCell id="QPa2e-_EbMcNQabbTF7_-167" value="" style="endArrow=classic;html=1;rounded=0;exitX=1;exitY=0.5;exitDx=0;exitDy=0;" parent="1" edge="1">
          <mxGeometry width="50" height="50" relative="1" as="geometry">
            <mxPoint x="530" y="690" as="sourcePoint" />
            <mxPoint x="570" y="690" as="targetPoint" />
          </mxGeometry>
        </mxCell>
        <mxCell id="QPa2e-_EbMcNQabbTF7_-168" value="d16" style="rounded=0;whiteSpace=wrap;html=1;" parent="1" vertex="1">
          <mxGeometry x="570" y="670" width="40" height="40" as="geometry" />
        </mxCell>
        <mxCell id="QPa2e-_EbMcNQabbTF7_-169" value="" style="endArrow=classic;html=1;rounded=0;exitX=1;exitY=0.5;exitDx=0;exitDy=0;" parent="1" edge="1">
          <mxGeometry width="50" height="50" relative="1" as="geometry">
            <mxPoint x="610" y="690" as="sourcePoint" />
            <mxPoint x="650" y="690" as="targetPoint" />
          </mxGeometry>
        </mxCell>
        <mxCell id="QPa2e-_EbMcNQabbTF7_-170" value="d15" style="rounded=0;whiteSpace=wrap;html=1;" parent="1" vertex="1">
          <mxGeometry x="650" y="670" width="40" height="40" as="geometry" />
        </mxCell>
        <mxCell id="QPa2e-_EbMcNQabbTF7_-171" value="" style="endArrow=classic;html=1;rounded=0;exitX=1;exitY=0.5;exitDx=0;exitDy=0;" parent="1" edge="1">
          <mxGeometry width="50" height="50" relative="1" as="geometry">
            <mxPoint x="690" y="690" as="sourcePoint" />
            <mxPoint x="730" y="690" as="targetPoint" />
          </mxGeometry>
        </mxCell>
        <mxCell id="QPa2e-_EbMcNQabbTF7_-172" value="d14" style="rounded=0;whiteSpace=wrap;html=1;" parent="1" vertex="1">
          <mxGeometry x="730" y="670" width="40" height="40" as="geometry" />
        </mxCell>
        <mxCell id="QPa2e-_EbMcNQabbTF7_-173" value="d13" style="rounded=0;whiteSpace=wrap;html=1;" parent="1" vertex="1">
          <mxGeometry x="250" y="750" width="40" height="40" as="geometry" />
        </mxCell>
        <mxCell id="QPa2e-_EbMcNQabbTF7_-174" value="" style="endArrow=classic;html=1;rounded=0;exitX=1;exitY=0.5;exitDx=0;exitDy=0;" parent="1" source="QPa2e-_EbMcNQabbTF7_-173" edge="1">
          <mxGeometry width="50" height="50" relative="1" as="geometry">
            <mxPoint x="310" y="770" as="sourcePoint" />
            <mxPoint x="330" y="770" as="targetPoint" />
          </mxGeometry>
        </mxCell>
        <mxCell id="QPa2e-_EbMcNQabbTF7_-175" value="" style="endArrow=classic;html=1;rounded=0;exitX=1;exitY=0.5;exitDx=0;exitDy=0;entryX=0;entryY=0.5;entryDx=0;entryDy=0;" parent="1" target="QPa2e-_EbMcNQabbTF7_-173" edge="1">
          <mxGeometry width="50" height="50" relative="1" as="geometry">
            <mxPoint x="200" y="770" as="sourcePoint" />
            <mxPoint x="500" y="850" as="targetPoint" />
          </mxGeometry>
        </mxCell>
        <mxCell id="QPa2e-_EbMcNQabbTF7_-176" value="d12" style="rounded=0;whiteSpace=wrap;html=1;" parent="1" vertex="1">
          <mxGeometry x="330" y="750" width="40" height="40" as="geometry" />
        </mxCell>
        <mxCell id="QPa2e-_EbMcNQabbTF7_-177" value="" style="endArrow=classic;html=1;rounded=0;exitX=1;exitY=0.5;exitDx=0;exitDy=0;" parent="1" edge="1">
          <mxGeometry width="50" height="50" relative="1" as="geometry">
            <mxPoint x="370" y="770" as="sourcePoint" />
            <mxPoint x="410" y="770" as="targetPoint" />
          </mxGeometry>
        </mxCell>
        <mxCell id="QPa2e-_EbMcNQabbTF7_-178" value="d11" style="rounded=0;whiteSpace=wrap;html=1;" parent="1" vertex="1">
          <mxGeometry x="410" y="750" width="40" height="40" as="geometry" />
        </mxCell>
        <mxCell id="QPa2e-_EbMcNQabbTF7_-179" value="" style="endArrow=classic;html=1;rounded=0;exitX=1;exitY=0.5;exitDx=0;exitDy=0;" parent="1" edge="1">
          <mxGeometry width="50" height="50" relative="1" as="geometry">
            <mxPoint x="450" y="770" as="sourcePoint" />
            <mxPoint x="490" y="770" as="targetPoint" />
          </mxGeometry>
        </mxCell>
        <mxCell id="QPa2e-_EbMcNQabbTF7_-180" value="d10" style="rounded=0;whiteSpace=wrap;html=1;" parent="1" vertex="1">
          <mxGeometry x="490" y="750" width="40" height="40" as="geometry" />
        </mxCell>
        <mxCell id="QPa2e-_EbMcNQabbTF7_-181" value="" style="endArrow=classic;html=1;rounded=0;exitX=1;exitY=0.5;exitDx=0;exitDy=0;" parent="1" edge="1">
          <mxGeometry width="50" height="50" relative="1" as="geometry">
            <mxPoint x="530" y="770" as="sourcePoint" />
            <mxPoint x="570" y="770" as="targetPoint" />
          </mxGeometry>
        </mxCell>
        <mxCell id="QPa2e-_EbMcNQabbTF7_-182" value="d9" style="rounded=0;whiteSpace=wrap;html=1;" parent="1" vertex="1">
          <mxGeometry x="570" y="750" width="40" height="40" as="geometry" />
        </mxCell>
        <mxCell id="QPa2e-_EbMcNQabbTF7_-183" value="" style="endArrow=classic;html=1;rounded=0;exitX=1;exitY=0.5;exitDx=0;exitDy=0;" parent="1" edge="1">
          <mxGeometry width="50" height="50" relative="1" as="geometry">
            <mxPoint x="610" y="770" as="sourcePoint" />
            <mxPoint x="650" y="770" as="targetPoint" />
          </mxGeometry>
        </mxCell>
        <mxCell id="QPa2e-_EbMcNQabbTF7_-184" value="d8" style="rounded=0;whiteSpace=wrap;html=1;" parent="1" vertex="1">
          <mxGeometry x="650" y="750" width="40" height="40" as="geometry" />
        </mxCell>
        <mxCell id="QPa2e-_EbMcNQabbTF7_-185" value="" style="endArrow=classic;html=1;rounded=0;exitX=1;exitY=0.5;exitDx=0;exitDy=0;" parent="1" edge="1">
          <mxGeometry width="50" height="50" relative="1" as="geometry">
            <mxPoint x="690" y="770" as="sourcePoint" />
            <mxPoint x="730" y="770" as="targetPoint" />
          </mxGeometry>
        </mxCell>
        <mxCell id="QPa2e-_EbMcNQabbTF7_-186" value="d7" style="rounded=0;whiteSpace=wrap;html=1;" parent="1" vertex="1">
          <mxGeometry x="730" y="750" width="40" height="40" as="geometry" />
        </mxCell>
        <mxCell id="QPa2e-_EbMcNQabbTF7_-187" value="d6" style="rounded=0;whiteSpace=wrap;html=1;" parent="1" vertex="1">
          <mxGeometry x="250" y="830" width="40" height="40" as="geometry" />
        </mxCell>
        <mxCell id="QPa2e-_EbMcNQabbTF7_-188" value="" style="endArrow=classic;html=1;rounded=0;exitX=1;exitY=0.5;exitDx=0;exitDy=0;" parent="1" source="QPa2e-_EbMcNQabbTF7_-187" edge="1">
          <mxGeometry width="50" height="50" relative="1" as="geometry">
            <mxPoint x="310" y="850" as="sourcePoint" />
            <mxPoint x="330" y="850" as="targetPoint" />
          </mxGeometry>
        </mxCell>
        <mxCell id="QPa2e-_EbMcNQabbTF7_-189" value="" style="endArrow=classic;html=1;rounded=0;exitX=1;exitY=0.5;exitDx=0;exitDy=0;entryX=0;entryY=0.5;entryDx=0;entryDy=0;" parent="1" target="QPa2e-_EbMcNQabbTF7_-187" edge="1">
          <mxGeometry width="50" height="50" relative="1" as="geometry">
            <mxPoint x="200" y="850" as="sourcePoint" />
            <mxPoint x="500" y="930" as="targetPoint" />
          </mxGeometry>
        </mxCell>
        <mxCell id="QPa2e-_EbMcNQabbTF7_-190" value="d5" style="rounded=0;whiteSpace=wrap;html=1;" parent="1" vertex="1">
          <mxGeometry x="330" y="830" width="40" height="40" as="geometry" />
        </mxCell>
        <mxCell id="QPa2e-_EbMcNQabbTF7_-191" value="" style="endArrow=classic;html=1;rounded=0;exitX=1;exitY=0.5;exitDx=0;exitDy=0;" parent="1" edge="1">
          <mxGeometry width="50" height="50" relative="1" as="geometry">
            <mxPoint x="370" y="850" as="sourcePoint" />
            <mxPoint x="410" y="850" as="targetPoint" />
          </mxGeometry>
        </mxCell>
        <mxCell id="QPa2e-_EbMcNQabbTF7_-192" value="d4" style="rounded=0;whiteSpace=wrap;html=1;" parent="1" vertex="1">
          <mxGeometry x="410" y="830" width="40" height="40" as="geometry" />
        </mxCell>
        <mxCell id="QPa2e-_EbMcNQabbTF7_-193" value="" style="endArrow=classic;html=1;rounded=0;exitX=1;exitY=0.5;exitDx=0;exitDy=0;" parent="1" edge="1">
          <mxGeometry width="50" height="50" relative="1" as="geometry">
            <mxPoint x="450" y="850" as="sourcePoint" />
            <mxPoint x="490" y="850" as="targetPoint" />
          </mxGeometry>
        </mxCell>
        <mxCell id="QPa2e-_EbMcNQabbTF7_-194" value="d3" style="rounded=0;whiteSpace=wrap;html=1;" parent="1" vertex="1">
          <mxGeometry x="490" y="830" width="40" height="40" as="geometry" />
        </mxCell>
        <mxCell id="QPa2e-_EbMcNQabbTF7_-195" value="" style="endArrow=classic;html=1;rounded=0;exitX=1;exitY=0.5;exitDx=0;exitDy=0;" parent="1" edge="1">
          <mxGeometry width="50" height="50" relative="1" as="geometry">
            <mxPoint x="530" y="850" as="sourcePoint" />
            <mxPoint x="570" y="850" as="targetPoint" />
          </mxGeometry>
        </mxCell>
        <mxCell id="QPa2e-_EbMcNQabbTF7_-196" value="d2" style="rounded=0;whiteSpace=wrap;html=1;" parent="1" vertex="1">
          <mxGeometry x="570" y="830" width="40" height="40" as="geometry" />
        </mxCell>
        <mxCell id="QPa2e-_EbMcNQabbTF7_-197" value="" style="endArrow=classic;html=1;rounded=0;exitX=1;exitY=0.5;exitDx=0;exitDy=0;" parent="1" edge="1">
          <mxGeometry width="50" height="50" relative="1" as="geometry">
            <mxPoint x="610" y="850" as="sourcePoint" />
            <mxPoint x="650" y="850" as="targetPoint" />
          </mxGeometry>
        </mxCell>
        <mxCell id="QPa2e-_EbMcNQabbTF7_-198" value="d1" style="rounded=0;whiteSpace=wrap;html=1;" parent="1" vertex="1">
          <mxGeometry x="650" y="830" width="40" height="40" as="geometry" />
        </mxCell>
        <mxCell id="QPa2e-_EbMcNQabbTF7_-199" value="" style="endArrow=classic;html=1;rounded=0;exitX=1;exitY=0.5;exitDx=0;exitDy=0;" parent="1" edge="1">
          <mxGeometry width="50" height="50" relative="1" as="geometry">
            <mxPoint x="690" y="850" as="sourcePoint" />
            <mxPoint x="730" y="850" as="targetPoint" />
          </mxGeometry>
        </mxCell>
        <mxCell id="QPa2e-_EbMcNQabbTF7_-200" value="d1" style="rounded=0;whiteSpace=wrap;html=1;" parent="1" vertex="1">
          <mxGeometry x="730" y="830" width="40" height="40" as="geometry" />
        </mxCell>
        <mxCell id="9oq79Bdc62THOU5HDjCZ-1" value="d0" style="rounded=0;whiteSpace=wrap;html=1;container=0;fillColor=#fff2cc;strokeColor=#d6b656;" parent="1" vertex="1">
          <mxGeometry x="1090" y="330" width="40" height="40" as="geometry" />
        </mxCell>
        <mxCell id="9oq79Bdc62THOU5HDjCZ-2" value="d1" style="rounded=0;whiteSpace=wrap;html=1;container=0;fillColor=#fff2cc;strokeColor=#d6b656;" parent="1" vertex="1">
          <mxGeometry x="1130" y="330" width="40" height="40" as="geometry" />
        </mxCell>
        <mxCell id="9oq79Bdc62THOU5HDjCZ-3" value="d2" style="rounded=0;whiteSpace=wrap;html=1;container=0;fillColor=#dae8fc;strokeColor=#6c8ebf;" parent="1" vertex="1">
          <mxGeometry x="1170" y="330" width="40" height="40" as="geometry" />
        </mxCell>
        <mxCell id="9oq79Bdc62THOU5HDjCZ-4" value="d3" style="rounded=0;whiteSpace=wrap;html=1;container=0;fillColor=#dae8fc;strokeColor=#6c8ebf;" parent="1" vertex="1">
          <mxGeometry x="1210" y="330" width="40" height="40" as="geometry" />
        </mxCell>
        <mxCell id="9oq79Bdc62THOU5HDjCZ-5" value="d4" style="rounded=0;whiteSpace=wrap;html=1;container=0;fillColor=#dae8fc;strokeColor=#6c8ebf;" parent="1" vertex="1">
          <mxGeometry x="1250" y="330" width="40" height="40" as="geometry" />
        </mxCell>
        <mxCell id="9oq79Bdc62THOU5HDjCZ-6" value="d5" style="rounded=0;whiteSpace=wrap;html=1;container=0;" parent="1" vertex="1">
          <mxGeometry x="1290" y="330" width="40" height="40" as="geometry" />
        </mxCell>
        <mxCell id="9oq79Bdc62THOU5HDjCZ-7" value="d6" style="rounded=0;whiteSpace=wrap;html=1;container=0;" parent="1" vertex="1">
          <mxGeometry x="1330" y="330" width="40" height="40" as="geometry" />
        </mxCell>
        <mxCell id="9oq79Bdc62THOU5HDjCZ-10" value="d7" style="rounded=0;whiteSpace=wrap;html=1;container=0;fillColor=#dae8fc;strokeColor=#6c8ebf;" parent="1" vertex="1">
          <mxGeometry x="1090" y="370" width="40" height="40" as="geometry" />
        </mxCell>
        <mxCell id="9oq79Bdc62THOU5HDjCZ-11" value="d8" style="rounded=0;whiteSpace=wrap;html=1;container=0;fillColor=#dae8fc;strokeColor=#6c8ebf;" parent="1" vertex="1">
          <mxGeometry x="1130" y="370" width="40" height="40" as="geometry" />
        </mxCell>
        <mxCell id="9oq79Bdc62THOU5HDjCZ-12" value="d9" style="rounded=0;whiteSpace=wrap;html=1;container=0;fillColor=#dae8fc;strokeColor=#6c8ebf;" parent="1" vertex="1">
          <mxGeometry x="1170" y="370" width="40" height="40" as="geometry" />
        </mxCell>
        <mxCell id="9oq79Bdc62THOU5HDjCZ-13" value="d10" style="rounded=0;whiteSpace=wrap;html=1;container=0;fillColor=#dae8fc;strokeColor=#6c8ebf;" parent="1" vertex="1">
          <mxGeometry x="1210" y="370" width="40" height="40" as="geometry" />
        </mxCell>
        <mxCell id="9oq79Bdc62THOU5HDjCZ-14" value="d11" style="rounded=0;whiteSpace=wrap;html=1;container=0;fillColor=#cce5ff;strokeColor=#36393d;" parent="1" vertex="1">
          <mxGeometry x="1250" y="370" width="40" height="40" as="geometry" />
        </mxCell>
        <mxCell id="9oq79Bdc62THOU5HDjCZ-15" value="d12" style="rounded=0;whiteSpace=wrap;html=1;container=0;" parent="1" vertex="1">
          <mxGeometry x="1290" y="370" width="40" height="40" as="geometry" />
        </mxCell>
        <mxCell id="9oq79Bdc62THOU5HDjCZ-16" value="d13" style="rounded=0;whiteSpace=wrap;html=1;container=0;" parent="1" vertex="1">
          <mxGeometry x="1330" y="370" width="40" height="40" as="geometry" />
        </mxCell>
        <mxCell id="9oq79Bdc62THOU5HDjCZ-19" value="d14" style="rounded=0;whiteSpace=wrap;html=1;container=0;fillColor=#dae8fc;strokeColor=#6c8ebf;" parent="1" vertex="1">
          <mxGeometry x="1090" y="410" width="40" height="40" as="geometry" />
        </mxCell>
        <mxCell id="9oq79Bdc62THOU5HDjCZ-20" value="d15" style="rounded=0;whiteSpace=wrap;html=1;container=0;fillColor=#dae8fc;strokeColor=#6c8ebf;" parent="1" vertex="1">
          <mxGeometry x="1130" y="410" width="40" height="40" as="geometry" />
        </mxCell>
        <mxCell id="9oq79Bdc62THOU5HDjCZ-21" value="d16" style="rounded=0;whiteSpace=wrap;html=1;container=0;fillColor=#cce5ff;strokeColor=#36393d;" parent="1" vertex="1">
          <mxGeometry x="1170" y="410" width="40" height="40" as="geometry" />
        </mxCell>
        <mxCell id="9oq79Bdc62THOU5HDjCZ-22" value="d17" style="rounded=0;whiteSpace=wrap;html=1;container=0;fillColor=#cce5ff;strokeColor=#36393d;" parent="1" vertex="1">
          <mxGeometry x="1210" y="410" width="40" height="40" as="geometry" />
        </mxCell>
        <mxCell id="9oq79Bdc62THOU5HDjCZ-23" value="d18" style="rounded=0;whiteSpace=wrap;html=1;container=0;fillColor=#ffff88;strokeColor=#36393d;" parent="1" vertex="1">
          <mxGeometry x="1250" y="410" width="40" height="40" as="geometry" />
        </mxCell>
        <mxCell id="9oq79Bdc62THOU5HDjCZ-24" value="d19" style="rounded=0;whiteSpace=wrap;html=1;container=0;fillColor=#ffff88;strokeColor=#36393d;" parent="1" vertex="1">
          <mxGeometry x="1290" y="410" width="40" height="40" as="geometry" />
        </mxCell>
        <mxCell id="9oq79Bdc62THOU5HDjCZ-25" value="d20" style="rounded=0;whiteSpace=wrap;html=1;container=0;fillColor=#ffff88;strokeColor=#36393d;" parent="1" vertex="1">
          <mxGeometry x="1330" y="410" width="40" height="40" as="geometry" />
        </mxCell>
        <mxCell id="9oq79Bdc62THOU5HDjCZ-28" value="d21" style="rounded=0;whiteSpace=wrap;html=1;container=0;fillColor=#dae8fc;strokeColor=#6c8ebf;" parent="1" vertex="1">
          <mxGeometry x="1090" y="450" width="40" height="40" as="geometry" />
        </mxCell>
        <mxCell id="9oq79Bdc62THOU5HDjCZ-29" value="d22" style="rounded=0;whiteSpace=wrap;html=1;container=0;fillColor=#cce5ff;strokeColor=#36393d;" parent="1" vertex="1">
          <mxGeometry x="1130" y="450" width="40" height="40" as="geometry" />
        </mxCell>
        <mxCell id="9oq79Bdc62THOU5HDjCZ-30" value="d23" style="rounded=0;whiteSpace=wrap;html=1;container=0;fillColor=#ffff88;strokeColor=#36393d;" parent="1" vertex="1">
          <mxGeometry x="1170" y="450" width="40" height="40" as="geometry" />
        </mxCell>
        <mxCell id="9oq79Bdc62THOU5HDjCZ-31" value="d24" style="rounded=0;whiteSpace=wrap;html=1;container=0;fillColor=#ffff88;strokeColor=#36393d;" parent="1" vertex="1">
          <mxGeometry x="1210" y="450" width="40" height="40" as="geometry" />
        </mxCell>
        <mxCell id="9oq79Bdc62THOU5HDjCZ-32" value="d25" style="rounded=0;whiteSpace=wrap;html=1;container=0;fillColor=#ffff88;strokeColor=#36393d;" parent="1" vertex="1">
          <mxGeometry x="1250" y="450" width="40" height="40" as="geometry" />
        </mxCell>
        <mxCell id="9oq79Bdc62THOU5HDjCZ-33" value="d26" style="rounded=0;whiteSpace=wrap;html=1;container=0;fillColor=#cce5ff;strokeColor=#36393d;" parent="1" vertex="1">
          <mxGeometry x="1290" y="450" width="40" height="40" as="geometry" />
        </mxCell>
        <mxCell id="9oq79Bdc62THOU5HDjCZ-34" value="d27" style="rounded=0;whiteSpace=wrap;html=1;container=0;fillColor=#dae8fc;strokeColor=#6c8ebf;" parent="1" vertex="1">
          <mxGeometry x="1330" y="450" width="40" height="40" as="geometry" />
        </mxCell>
        <mxCell id="9oq79Bdc62THOU5HDjCZ-37" value="d28" style="rounded=0;whiteSpace=wrap;html=1;container=0;fillColor=#ffff88;strokeColor=#36393d;" parent="1" vertex="1">
          <mxGeometry x="1090" y="490" width="40" height="40" as="geometry" />
        </mxCell>
        <mxCell id="9oq79Bdc62THOU5HDjCZ-38" value="d29" style="rounded=0;whiteSpace=wrap;html=1;container=0;fillColor=#ffff88;strokeColor=#36393d;" parent="1" vertex="1">
          <mxGeometry x="1130" y="490" width="40" height="40" as="geometry" />
        </mxCell>
        <mxCell id="9oq79Bdc62THOU5HDjCZ-39" value="d30" style="rounded=0;whiteSpace=wrap;html=1;container=0;fillColor=#ffff88;strokeColor=#36393d;" parent="1" vertex="1">
          <mxGeometry x="1170" y="490" width="40" height="40" as="geometry" />
        </mxCell>
        <mxCell id="9oq79Bdc62THOU5HDjCZ-40" value="d31" style="rounded=0;whiteSpace=wrap;html=1;container=0;fillColor=#ffff88;strokeColor=#36393d;" parent="1" vertex="1">
          <mxGeometry x="1210" y="490" width="40" height="40" as="geometry" />
        </mxCell>
        <mxCell id="9oq79Bdc62THOU5HDjCZ-41" value="d32" style="rounded=0;whiteSpace=wrap;html=1;container=0;fillColor=#cce5ff;strokeColor=#36393d;" parent="1" vertex="1">
          <mxGeometry x="1250" y="490" width="40" height="40" as="geometry" />
        </mxCell>
        <mxCell id="9oq79Bdc62THOU5HDjCZ-42" value="d33" style="rounded=0;whiteSpace=wrap;html=1;container=0;fillColor=#dae8fc;strokeColor=#6c8ebf;" parent="1" vertex="1">
          <mxGeometry x="1290" y="490" width="40" height="40" as="geometry" />
        </mxCell>
        <mxCell id="9oq79Bdc62THOU5HDjCZ-43" value="d34" style="rounded=0;whiteSpace=wrap;html=1;container=0;fillColor=#dae8fc;strokeColor=#6c8ebf;" parent="1" vertex="1">
          <mxGeometry x="1330" y="490" width="40" height="40" as="geometry" />
        </mxCell>
        <mxCell id="9oq79Bdc62THOU5HDjCZ-46" value="d35" style="rounded=0;whiteSpace=wrap;html=1;container=0;fillColor=#dae8fc;strokeColor=#6c8ebf;" parent="1" vertex="1">
          <mxGeometry x="1090" y="530" width="40" height="40" as="geometry" />
        </mxCell>
        <mxCell id="9oq79Bdc62THOU5HDjCZ-47" value="d36" style="rounded=0;whiteSpace=wrap;html=1;container=0;fillColor=#dae8fc;strokeColor=#6c8ebf;" parent="1" vertex="1">
          <mxGeometry x="1130" y="530" width="40" height="40" as="geometry" />
        </mxCell>
        <mxCell id="9oq79Bdc62THOU5HDjCZ-48" value="d37" style="rounded=0;whiteSpace=wrap;html=1;container=0;fillColor=#dae8fc;strokeColor=#6c8ebf;" parent="1" vertex="1">
          <mxGeometry x="1170" y="530" width="40" height="40" as="geometry" />
        </mxCell>
        <mxCell id="9oq79Bdc62THOU5HDjCZ-49" value="d38" style="rounded=0;whiteSpace=wrap;html=1;container=0;fillColor=#cce5ff;strokeColor=#36393d;" parent="1" vertex="1">
          <mxGeometry x="1210" y="530" width="40" height="40" as="geometry" />
        </mxCell>
        <mxCell id="9oq79Bdc62THOU5HDjCZ-50" value="d39" style="rounded=0;whiteSpace=wrap;html=1;container=0;fillColor=#fff2cc;strokeColor=#d6b656;" parent="1" vertex="1">
          <mxGeometry x="1250" y="530" width="40" height="40" as="geometry" />
        </mxCell>
        <mxCell id="9oq79Bdc62THOU5HDjCZ-51" value="d40" style="rounded=0;whiteSpace=wrap;html=1;container=0;fillColor=#dae8fc;strokeColor=#6c8ebf;" parent="1" vertex="1">
          <mxGeometry x="1290" y="530" width="40" height="40" as="geometry" />
        </mxCell>
        <mxCell id="9oq79Bdc62THOU5HDjCZ-52" value="d41" style="rounded=0;whiteSpace=wrap;html=1;container=0;fillColor=#fff2cc;strokeColor=#d6b656;" parent="1" vertex="1">
          <mxGeometry x="1330" y="530" width="40" height="40" as="geometry" />
        </mxCell>
        <mxCell id="9oq79Bdc62THOU5HDjCZ-55" value="d42" style="rounded=0;whiteSpace=wrap;html=1;container=0;fillColor=#dae8fc;strokeColor=#6c8ebf;" parent="1" vertex="1">
          <mxGeometry x="1090" y="570" width="40" height="40" as="geometry" />
        </mxCell>
        <mxCell id="9oq79Bdc62THOU5HDjCZ-56" value="d43" style="rounded=0;whiteSpace=wrap;html=1;container=0;fillColor=#dae8fc;strokeColor=#6c8ebf;" parent="1" vertex="1">
          <mxGeometry x="1130" y="570" width="40" height="40" as="geometry" />
        </mxCell>
        <mxCell id="9oq79Bdc62THOU5HDjCZ-57" value="d44" style="rounded=0;whiteSpace=wrap;html=1;container=0;fillColor=#cce5ff;strokeColor=#36393d;" parent="1" vertex="1">
          <mxGeometry x="1170" y="570" width="40" height="40" as="geometry" />
        </mxCell>
        <mxCell id="9oq79Bdc62THOU5HDjCZ-58" value="d45" style="rounded=0;whiteSpace=wrap;html=1;container=0;fillColor=#fff2cc;strokeColor=#d6b656;" parent="1" vertex="1">
          <mxGeometry x="1210" y="570" width="40" height="40" as="geometry" />
        </mxCell>
        <mxCell id="9oq79Bdc62THOU5HDjCZ-59" value="d46" style="rounded=0;whiteSpace=wrap;html=1;container=0;fillColor=#fff2cc;strokeColor=#d6b656;" parent="1" vertex="1">
          <mxGeometry x="1250" y="570" width="40" height="40" as="geometry" />
        </mxCell>
        <mxCell id="9oq79Bdc62THOU5HDjCZ-60" value="d47" style="rounded=0;whiteSpace=wrap;html=1;container=0;fillColor=#fff2cc;strokeColor=#d6b656;" parent="1" vertex="1">
          <mxGeometry x="1290" y="570" width="40" height="40" as="geometry" />
        </mxCell>
        <mxCell id="9oq79Bdc62THOU5HDjCZ-61" value="d48" style="rounded=0;whiteSpace=wrap;html=1;container=0;fillColor=#fff2cc;strokeColor=#d6b656;" parent="1" vertex="1">
          <mxGeometry x="1330" y="570" width="40" height="40" as="geometry" />
        </mxCell>
        <mxCell id="A3wXZoz36PBpPaF0VSKz-1" value="d10" style="rounded=0;whiteSpace=wrap;html=1;container=0;" parent="1" vertex="1">
          <mxGeometry x="1210" y="370" width="40" height="40" as="geometry" />
        </mxCell>
        <mxCell id="A3wXZoz36PBpPaF0VSKz-2" value="d4" style="rounded=0;whiteSpace=wrap;html=1;container=0;fillColor=#cce5ff;strokeColor=#36393d;" parent="1" vertex="1">
          <mxGeometry x="1250" y="330" width="40" height="40" as="geometry" />
        </mxCell>
        <mxCell id="A3wXZoz36PBpPaF0VSKz-5" value="d5" style="rounded=0;whiteSpace=wrap;html=1;container=0;" parent="1" vertex="1">
          <mxGeometry x="1290" y="330" width="40" height="40" as="geometry" />
        </mxCell>
        <mxCell id="A3wXZoz36PBpPaF0VSKz-6" value="d6" style="rounded=0;whiteSpace=wrap;html=1;container=0;" parent="1" vertex="1">
          <mxGeometry x="1330" y="330" width="40" height="40" as="geometry" />
        </mxCell>
        <mxCell id="A3wXZoz36PBpPaF0VSKz-7" value="d27" style="rounded=0;whiteSpace=wrap;html=1;container=0;fillColor=#fff2cc;strokeColor=#d6b656;" parent="1" vertex="1">
          <mxGeometry x="1330" y="450" width="40" height="40" as="geometry" />
        </mxCell>
        <mxCell id="A3wXZoz36PBpPaF0VSKz-8" value="d34" style="rounded=0;whiteSpace=wrap;html=1;container=0;fillColor=#fff2cc;strokeColor=#d6b656;" parent="1" vertex="1">
          <mxGeometry x="1330" y="490" width="40" height="40" as="geometry" />
        </mxCell>
        <mxCell id="A3wXZoz36PBpPaF0VSKz-9" value="d33" style="rounded=0;whiteSpace=wrap;html=1;container=0;fillColor=#fff2cc;strokeColor=#d6b656;" parent="1" vertex="1">
          <mxGeometry x="1290" y="490" width="40" height="40" as="geometry" />
        </mxCell>
        <mxCell id="A3wXZoz36PBpPaF0VSKz-10" value="d40" style="rounded=0;whiteSpace=wrap;html=1;container=0;fillColor=#fff2cc;strokeColor=#d6b656;" parent="1" vertex="1">
          <mxGeometry x="1290" y="530" width="40" height="40" as="geometry" />
        </mxCell>
        <mxCell id="A3wXZoz36PBpPaF0VSKz-11" value="d48" style="rounded=0;whiteSpace=wrap;html=1;container=0;fillColor=#fff2cc;strokeColor=#d6b656;" parent="1" vertex="1">
          <mxGeometry x="1330" y="570" width="40" height="40" as="geometry" />
        </mxCell>
        <mxCell id="A3wXZoz36PBpPaF0VSKz-12" value="d41" style="rounded=0;whiteSpace=wrap;html=1;container=0;fillColor=#fff2cc;strokeColor=#d6b656;" parent="1" vertex="1">
          <mxGeometry x="1330" y="530" width="40" height="40" as="geometry" />
        </mxCell>
        <mxCell id="A3wXZoz36PBpPaF0VSKz-13" value="d34" style="rounded=0;whiteSpace=wrap;html=1;container=0;fillColor=#fff2cc;strokeColor=#d6b656;" parent="1" vertex="1">
          <mxGeometry x="1330" y="490" width="40" height="40" as="geometry" />
        </mxCell>
        <mxCell id="A3wXZoz36PBpPaF0VSKz-14" value="d27" style="rounded=0;whiteSpace=wrap;html=1;container=0;fillColor=#fff2cc;strokeColor=#d6b656;" parent="1" vertex="1">
          <mxGeometry x="1330" y="450" width="40" height="40" as="geometry" />
        </mxCell>
        <mxCell id="A3wXZoz36PBpPaF0VSKz-15" value="d33" style="rounded=0;whiteSpace=wrap;html=1;container=0;fillColor=#fff2cc;strokeColor=#d6b656;" parent="1" vertex="1">
          <mxGeometry x="1290" y="490" width="40" height="40" as="geometry" />
        </mxCell>
        <mxCell id="A3wXZoz36PBpPaF0VSKz-16" value="d40" style="rounded=0;whiteSpace=wrap;html=1;container=0;fillColor=#fff2cc;strokeColor=#d6b656;" parent="1" vertex="1">
          <mxGeometry x="1290" y="530" width="40" height="40" as="geometry" />
        </mxCell>
        <mxCell id="A3wXZoz36PBpPaF0VSKz-17" value="d47" style="rounded=0;whiteSpace=wrap;html=1;container=0;fillColor=#fff2cc;strokeColor=#d6b656;" parent="1" vertex="1">
          <mxGeometry x="1290" y="570" width="40" height="40" as="geometry" />
        </mxCell>
        <mxCell id="A3wXZoz36PBpPaF0VSKz-18" value="d46" style="rounded=0;whiteSpace=wrap;html=1;container=0;fillColor=#fff2cc;strokeColor=#d6b656;" parent="1" vertex="1">
          <mxGeometry x="1250" y="570" width="40" height="40" as="geometry" />
        </mxCell>
        <mxCell id="A3wXZoz36PBpPaF0VSKz-19" value="d39" style="rounded=0;whiteSpace=wrap;html=1;container=0;fillColor=#fff2cc;strokeColor=#d6b656;" parent="1" vertex="1">
          <mxGeometry x="1250" y="530" width="40" height="40" as="geometry" />
        </mxCell>
        <mxCell id="A3wXZoz36PBpPaF0VSKz-20" value="d45" style="rounded=0;whiteSpace=wrap;html=1;container=0;fillColor=#fff2cc;strokeColor=#d6b656;" parent="1" vertex="1">
          <mxGeometry x="1210" y="570" width="40" height="40" as="geometry" />
        </mxCell>
        <mxCell id="A3wXZoz36PBpPaF0VSKz-21" value="d21" style="rounded=0;whiteSpace=wrap;html=1;container=0;fillColor=#dae8fc;strokeColor=#6c8ebf;" parent="1" vertex="1">
          <mxGeometry x="1090" y="450" width="40" height="40" as="geometry" />
        </mxCell>
        <mxCell id="A3wXZoz36PBpPaF0VSKz-22" value="d14" style="rounded=0;whiteSpace=wrap;html=1;container=0;fillColor=#dae8fc;strokeColor=#6c8ebf;" parent="1" vertex="1">
          <mxGeometry x="1090" y="410" width="40" height="40" as="geometry" />
        </mxCell>
        <mxCell id="A3wXZoz36PBpPaF0VSKz-23" value="d15" style="rounded=0;whiteSpace=wrap;html=1;container=0;fillColor=#dae8fc;strokeColor=#6c8ebf;" parent="1" vertex="1">
          <mxGeometry x="1130" y="410" width="40" height="40" as="geometry" />
        </mxCell>
        <mxCell id="A3wXZoz36PBpPaF0VSKz-24" value="d7" style="rounded=0;whiteSpace=wrap;html=1;container=0;fillColor=#dae8fc;strokeColor=#6c8ebf;" parent="1" vertex="1">
          <mxGeometry x="1090" y="370" width="40" height="40" as="geometry" />
        </mxCell>
        <mxCell id="A3wXZoz36PBpPaF0VSKz-25" value="d8" style="rounded=0;whiteSpace=wrap;html=1;container=0;fillColor=#dae8fc;strokeColor=#6c8ebf;" parent="1" vertex="1">
          <mxGeometry x="1130" y="370" width="40" height="40" as="geometry" />
        </mxCell>
        <mxCell id="A3wXZoz36PBpPaF0VSKz-26" value="d9" style="rounded=0;whiteSpace=wrap;html=1;container=0;fillColor=#dae8fc;strokeColor=#6c8ebf;" parent="1" vertex="1">
          <mxGeometry x="1170" y="370" width="40" height="40" as="geometry" />
        </mxCell>
        <mxCell id="A3wXZoz36PBpPaF0VSKz-27" value="d48" style="rounded=0;whiteSpace=wrap;html=1;container=0;fillColor=#fff2cc;strokeColor=#d6b656;" parent="1" vertex="1">
          <mxGeometry x="1330" y="570" width="40" height="40" as="geometry" />
        </mxCell>
        <mxCell id="A3wXZoz36PBpPaF0VSKz-28" value="d41" style="rounded=0;whiteSpace=wrap;html=1;container=0;fillColor=#fff2cc;strokeColor=#d6b656;" parent="1" vertex="1">
          <mxGeometry x="1330" y="530" width="40" height="40" as="geometry" />
        </mxCell>
        <mxCell id="A3wXZoz36PBpPaF0VSKz-29" value="d34" style="rounded=0;whiteSpace=wrap;html=1;container=0;fillColor=#fff2cc;strokeColor=#d6b656;" parent="1" vertex="1">
          <mxGeometry x="1330" y="490" width="40" height="40" as="geometry" />
        </mxCell>
        <mxCell id="A3wXZoz36PBpPaF0VSKz-30" value="d27" style="rounded=0;whiteSpace=wrap;html=1;container=0;fillColor=#ffff88;strokeColor=#36393d;" parent="1" vertex="1">
          <mxGeometry x="1330" y="450" width="40" height="40" as="geometry" />
        </mxCell>
        <mxCell id="A3wXZoz36PBpPaF0VSKz-31" value="d33" style="rounded=0;whiteSpace=wrap;html=1;container=0;fillColor=#fff2cc;strokeColor=#d6b656;" parent="1" vertex="1">
          <mxGeometry x="1290" y="490" width="40" height="40" as="geometry" />
        </mxCell>
        <mxCell id="A3wXZoz36PBpPaF0VSKz-32" value="d40" style="rounded=0;whiteSpace=wrap;html=1;container=0;fillColor=#fff2cc;strokeColor=#d6b656;" parent="1" vertex="1">
          <mxGeometry x="1290" y="530" width="40" height="40" as="geometry" />
        </mxCell>
        <mxCell id="A3wXZoz36PBpPaF0VSKz-33" value="d47" style="rounded=0;whiteSpace=wrap;html=1;container=0;fillColor=#fff2cc;strokeColor=#d6b656;" parent="1" vertex="1">
          <mxGeometry x="1290" y="570" width="40" height="40" as="geometry" />
        </mxCell>
        <mxCell id="A3wXZoz36PBpPaF0VSKz-34" value="d46" style="rounded=0;whiteSpace=wrap;html=1;container=0;fillColor=#fff2cc;strokeColor=#d6b656;" parent="1" vertex="1">
          <mxGeometry x="1250" y="570" width="40" height="40" as="geometry" />
        </mxCell>
        <mxCell id="A3wXZoz36PBpPaF0VSKz-35" value="d39" style="rounded=0;whiteSpace=wrap;html=1;container=0;fillColor=#fff2cc;strokeColor=#d6b656;" parent="1" vertex="1">
          <mxGeometry x="1250" y="530" width="40" height="40" as="geometry" />
        </mxCell>
        <mxCell id="A3wXZoz36PBpPaF0VSKz-36" value="d45" style="rounded=0;whiteSpace=wrap;html=1;container=0;fillColor=#fff2cc;strokeColor=#d6b656;" parent="1" vertex="1">
          <mxGeometry x="1210" y="570" width="40" height="40" as="geometry" />
        </mxCell>
        <mxCell id="A3wXZoz36PBpPaF0VSKz-37" value="d21" style="rounded=0;whiteSpace=wrap;html=1;container=0;fillColor=#fff2cc;strokeColor=#d6b656;" parent="1" vertex="1">
          <mxGeometry x="1090" y="450" width="40" height="40" as="geometry" />
        </mxCell>
        <mxCell id="A3wXZoz36PBpPaF0VSKz-38" value="d14" style="rounded=0;whiteSpace=wrap;html=1;container=0;fillColor=#fff2cc;strokeColor=#d6b656;" parent="1" vertex="1">
          <mxGeometry x="1090" y="410" width="40" height="40" as="geometry" />
        </mxCell>
        <mxCell id="A3wXZoz36PBpPaF0VSKz-39" value="d15" style="rounded=0;whiteSpace=wrap;html=1;container=0;fillColor=#fff2cc;strokeColor=#d6b656;" parent="1" vertex="1">
          <mxGeometry x="1130" y="410" width="40" height="40" as="geometry" />
        </mxCell>
        <mxCell id="A3wXZoz36PBpPaF0VSKz-40" value="d7" style="rounded=0;whiteSpace=wrap;html=1;container=0;fillColor=#fff2cc;strokeColor=#d6b656;" parent="1" vertex="1">
          <mxGeometry x="1090" y="370" width="40" height="40" as="geometry" />
        </mxCell>
        <mxCell id="A3wXZoz36PBpPaF0VSKz-41" value="d8" style="rounded=0;whiteSpace=wrap;html=1;container=0;fillColor=#fff2cc;strokeColor=#d6b656;" parent="1" vertex="1">
          <mxGeometry x="1130" y="370" width="40" height="40" as="geometry" />
        </mxCell>
        <mxCell id="A3wXZoz36PBpPaF0VSKz-42" value="d9" style="rounded=0;whiteSpace=wrap;html=1;container=0;fillColor=#fff2cc;strokeColor=#d6b656;" parent="1" vertex="1">
          <mxGeometry x="1170" y="370" width="40" height="40" as="geometry" />
        </mxCell>
        <mxCell id="A3wXZoz36PBpPaF0VSKz-43" value="d2" style="rounded=0;whiteSpace=wrap;html=1;container=0;fillColor=#fff2cc;strokeColor=#d6b656;" parent="1" vertex="1">
          <mxGeometry x="1170" y="330" width="40" height="40" as="geometry" />
        </mxCell>
        <mxCell id="A3wXZoz36PBpPaF0VSKz-44" value="d3" style="rounded=0;whiteSpace=wrap;html=1;container=0;fillColor=#fff2cc;strokeColor=#d6b656;" parent="1" vertex="1">
          <mxGeometry x="1210" y="330" width="40" height="40" as="geometry" />
        </mxCell>
        <mxCell id="A3wXZoz36PBpPaF0VSKz-45" value="d43" style="rounded=0;whiteSpace=wrap;html=1;container=0;fillColor=#cce5ff;strokeColor=#36393d;" parent="1" vertex="1">
          <mxGeometry x="1130" y="570" width="40" height="40" as="geometry" />
        </mxCell>
        <mxCell id="A3wXZoz36PBpPaF0VSKz-46" value="d42" style="rounded=0;whiteSpace=wrap;html=1;container=0;fillColor=#ffff88;strokeColor=#36393d;" parent="1" vertex="1">
          <mxGeometry x="1090" y="570" width="40" height="40" as="geometry" />
        </mxCell>
        <mxCell id="A3wXZoz36PBpPaF0VSKz-47" value="d35" style="rounded=0;whiteSpace=wrap;html=1;container=0;fillColor=#ffff88;strokeColor=#36393d;" parent="1" vertex="1">
          <mxGeometry x="1090" y="530" width="40" height="40" as="geometry" />
        </mxCell>
        <mxCell id="A3wXZoz36PBpPaF0VSKz-48" value="d36" style="rounded=0;whiteSpace=wrap;html=1;container=0;fillColor=#cce5ff;strokeColor=#36393d;" parent="1" vertex="1">
          <mxGeometry x="1130" y="530" width="40" height="40" as="geometry" />
        </mxCell>
        <mxCell id="A3wXZoz36PBpPaF0VSKz-49" value="d37" style="rounded=0;whiteSpace=wrap;html=1;container=0;fillColor=#ffff88;strokeColor=#36393d;" parent="1" vertex="1">
          <mxGeometry x="1170" y="530" width="40" height="40" as="geometry" />
        </mxCell>
        <mxCell id="A3wXZoz36PBpPaF0VSKz-50" value="d5" style="rounded=0;whiteSpace=wrap;html=1;container=0;fillColor=#cce5ff;strokeColor=#36393d;" parent="1" vertex="1">
          <mxGeometry x="1290" y="330" width="40" height="40" as="geometry" />
        </mxCell>
        <mxCell id="A3wXZoz36PBpPaF0VSKz-51" value="d6" style="rounded=0;whiteSpace=wrap;html=1;container=0;fillColor=#cce5ff;strokeColor=#36393d;" parent="1" vertex="1">
          <mxGeometry x="1330" y="330" width="40" height="40" as="geometry" />
        </mxCell>
        <mxCell id="A3wXZoz36PBpPaF0VSKz-52" value="d13" style="rounded=0;whiteSpace=wrap;html=1;container=0;fillColor=#ffff88;strokeColor=#36393d;" parent="1" vertex="1">
          <mxGeometry x="1330" y="370" width="40" height="40" as="geometry" />
        </mxCell>
        <mxCell id="A3wXZoz36PBpPaF0VSKz-53" value="d12" style="rounded=0;whiteSpace=wrap;html=1;container=0;fillColor=#cce5ff;strokeColor=#36393d;" parent="1" vertex="1">
          <mxGeometry x="1290" y="370" width="40" height="40" as="geometry" />
        </mxCell>
        <mxCell id="A3wXZoz36PBpPaF0VSKz-54" value="d10" style="rounded=0;whiteSpace=wrap;html=1;container=0;fillColor=#cce5ff;strokeColor=#36393d;" parent="1" vertex="1">
          <mxGeometry x="1210" y="370" width="40" height="40" as="geometry" />
        </mxCell>
        <mxCell id="0EEo3wZB-l8Ojv6wXw7C-1" value="d0" style="rounded=0;whiteSpace=wrap;html=1;container=0;" vertex="1" parent="1">
          <mxGeometry x="1480" y="320" width="40" height="40" as="geometry" />
        </mxCell>
        <mxCell id="0EEo3wZB-l8Ojv6wXw7C-2" value="d1" style="rounded=0;whiteSpace=wrap;html=1;container=0;" vertex="1" parent="1">
          <mxGeometry x="1520" y="320" width="40" height="40" as="geometry" />
        </mxCell>
        <mxCell id="0EEo3wZB-l8Ojv6wXw7C-3" value="d2" style="rounded=0;whiteSpace=wrap;html=1;container=0;" vertex="1" parent="1">
          <mxGeometry x="1560" y="320" width="40" height="40" as="geometry" />
        </mxCell>
        <mxCell id="0EEo3wZB-l8Ojv6wXw7C-4" value="d3" style="rounded=0;whiteSpace=wrap;html=1;container=0;" vertex="1" parent="1">
          <mxGeometry x="1600" y="320" width="40" height="40" as="geometry" />
        </mxCell>
        <mxCell id="0EEo3wZB-l8Ojv6wXw7C-5" value="d4" style="rounded=0;whiteSpace=wrap;html=1;container=0;" vertex="1" parent="1">
          <mxGeometry x="1640" y="320" width="40" height="40" as="geometry" />
        </mxCell>
        <mxCell id="0EEo3wZB-l8Ojv6wXw7C-6" value="d5" style="rounded=0;whiteSpace=wrap;html=1;container=0;" vertex="1" parent="1">
          <mxGeometry x="1680" y="320" width="40" height="40" as="geometry" />
        </mxCell>
        <mxCell id="0EEo3wZB-l8Ojv6wXw7C-7" value="d6" style="rounded=0;whiteSpace=wrap;html=1;container=0;" vertex="1" parent="1">
          <mxGeometry x="1720" y="320" width="40" height="40" as="geometry" />
        </mxCell>
        <mxCell id="0EEo3wZB-l8Ojv6wXw7C-8" value="d7" style="rounded=0;whiteSpace=wrap;html=1;container=0;" vertex="1" parent="1">
          <mxGeometry x="1480" y="360" width="40" height="40" as="geometry" />
        </mxCell>
        <mxCell id="0EEo3wZB-l8Ojv6wXw7C-9" value="d8" style="rounded=0;whiteSpace=wrap;html=1;container=0;" vertex="1" parent="1">
          <mxGeometry x="1520" y="360" width="40" height="40" as="geometry" />
        </mxCell>
        <mxCell id="0EEo3wZB-l8Ojv6wXw7C-10" value="d9" style="rounded=0;whiteSpace=wrap;html=1;container=0;" vertex="1" parent="1">
          <mxGeometry x="1560" y="360" width="40" height="40" as="geometry" />
        </mxCell>
        <mxCell id="0EEo3wZB-l8Ojv6wXw7C-11" value="d10" style="rounded=0;whiteSpace=wrap;html=1;container=0;" vertex="1" parent="1">
          <mxGeometry x="1600" y="360" width="40" height="40" as="geometry" />
        </mxCell>
        <mxCell id="0EEo3wZB-l8Ojv6wXw7C-12" value="d11" style="rounded=0;whiteSpace=wrap;html=1;container=0;" vertex="1" parent="1">
          <mxGeometry x="1640" y="360" width="40" height="40" as="geometry" />
        </mxCell>
        <mxCell id="0EEo3wZB-l8Ojv6wXw7C-13" value="d12" style="rounded=0;whiteSpace=wrap;html=1;container=0;" vertex="1" parent="1">
          <mxGeometry x="1680" y="360" width="40" height="40" as="geometry" />
        </mxCell>
        <mxCell id="0EEo3wZB-l8Ojv6wXw7C-14" value="d13" style="rounded=0;whiteSpace=wrap;html=1;container=0;" vertex="1" parent="1">
          <mxGeometry x="1720" y="360" width="40" height="40" as="geometry" />
        </mxCell>
        <mxCell id="0EEo3wZB-l8Ojv6wXw7C-15" value="d14" style="rounded=0;whiteSpace=wrap;html=1;container=0;" vertex="1" parent="1">
          <mxGeometry x="1480" y="400" width="40" height="40" as="geometry" />
        </mxCell>
        <mxCell id="0EEo3wZB-l8Ojv6wXw7C-16" value="d15" style="rounded=0;whiteSpace=wrap;html=1;container=0;" vertex="1" parent="1">
          <mxGeometry x="1520" y="400" width="40" height="40" as="geometry" />
        </mxCell>
        <mxCell id="0EEo3wZB-l8Ojv6wXw7C-17" value="d16" style="rounded=0;whiteSpace=wrap;html=1;container=0;" vertex="1" parent="1">
          <mxGeometry x="1560" y="400" width="40" height="40" as="geometry" />
        </mxCell>
        <mxCell id="0EEo3wZB-l8Ojv6wXw7C-18" value="d17" style="rounded=0;whiteSpace=wrap;html=1;container=0;fillColor=#dae8fc;strokeColor=#6c8ebf;" vertex="1" parent="1">
          <mxGeometry x="1600" y="400" width="40" height="40" as="geometry" />
        </mxCell>
        <mxCell id="0EEo3wZB-l8Ojv6wXw7C-19" value="d18" style="rounded=0;whiteSpace=wrap;html=1;container=0;" vertex="1" parent="1">
          <mxGeometry x="1640" y="400" width="40" height="40" as="geometry" />
        </mxCell>
        <mxCell id="0EEo3wZB-l8Ojv6wXw7C-20" value="d19" style="rounded=0;whiteSpace=wrap;html=1;container=0;" vertex="1" parent="1">
          <mxGeometry x="1680" y="400" width="40" height="40" as="geometry" />
        </mxCell>
        <mxCell id="0EEo3wZB-l8Ojv6wXw7C-21" value="d20" style="rounded=0;whiteSpace=wrap;html=1;container=0;" vertex="1" parent="1">
          <mxGeometry x="1720" y="400" width="40" height="40" as="geometry" />
        </mxCell>
        <mxCell id="0EEo3wZB-l8Ojv6wXw7C-22" value="d21" style="rounded=0;whiteSpace=wrap;html=1;container=0;" vertex="1" parent="1">
          <mxGeometry x="1480" y="440" width="40" height="40" as="geometry" />
        </mxCell>
        <mxCell id="0EEo3wZB-l8Ojv6wXw7C-23" value="d22" style="rounded=0;whiteSpace=wrap;html=1;container=0;fillColor=#dae8fc;strokeColor=#6c8ebf;" vertex="1" parent="1">
          <mxGeometry x="1520" y="440" width="40" height="40" as="geometry" />
        </mxCell>
        <mxCell id="0EEo3wZB-l8Ojv6wXw7C-24" value="d23" style="rounded=0;whiteSpace=wrap;html=1;container=0;fillColor=#dae8fc;strokeColor=#6c8ebf;" vertex="1" parent="1">
          <mxGeometry x="1560" y="440" width="40" height="40" as="geometry" />
        </mxCell>
        <mxCell id="0EEo3wZB-l8Ojv6wXw7C-25" value="d24" style="rounded=0;whiteSpace=wrap;html=1;container=0;fillColor=#dae8fc;strokeColor=#6c8ebf;" vertex="1" parent="1">
          <mxGeometry x="1600" y="440" width="40" height="40" as="geometry" />
        </mxCell>
        <mxCell id="0EEo3wZB-l8Ojv6wXw7C-26" value="d25" style="rounded=0;whiteSpace=wrap;html=1;container=0;fillColor=#dae8fc;strokeColor=#6c8ebf;" vertex="1" parent="1">
          <mxGeometry x="1640" y="440" width="40" height="40" as="geometry" />
        </mxCell>
        <mxCell id="0EEo3wZB-l8Ojv6wXw7C-27" value="d26" style="rounded=0;whiteSpace=wrap;html=1;container=0;fillColor=#dae8fc;strokeColor=#6c8ebf;" vertex="1" parent="1">
          <mxGeometry x="1680" y="440" width="40" height="40" as="geometry" />
        </mxCell>
        <mxCell id="0EEo3wZB-l8Ojv6wXw7C-28" value="d27" style="rounded=0;whiteSpace=wrap;html=1;container=0;" vertex="1" parent="1">
          <mxGeometry x="1720" y="440" width="40" height="40" as="geometry" />
        </mxCell>
        <mxCell id="0EEo3wZB-l8Ojv6wXw7C-29" value="d28" style="rounded=0;whiteSpace=wrap;html=1;container=0;" vertex="1" parent="1">
          <mxGeometry x="1480" y="480" width="40" height="40" as="geometry" />
        </mxCell>
        <mxCell id="0EEo3wZB-l8Ojv6wXw7C-30" value="d29" style="rounded=0;whiteSpace=wrap;html=1;container=0;" vertex="1" parent="1">
          <mxGeometry x="1520" y="480" width="40" height="40" as="geometry" />
        </mxCell>
        <mxCell id="0EEo3wZB-l8Ojv6wXw7C-31" value="d30" style="rounded=0;whiteSpace=wrap;html=1;container=0;" vertex="1" parent="1">
          <mxGeometry x="1560" y="480" width="40" height="40" as="geometry" />
        </mxCell>
        <mxCell id="0EEo3wZB-l8Ojv6wXw7C-32" value="d31" style="rounded=0;whiteSpace=wrap;html=1;container=0;fillColor=#dae8fc;strokeColor=#6c8ebf;" vertex="1" parent="1">
          <mxGeometry x="1600" y="480" width="40" height="40" as="geometry" />
        </mxCell>
        <mxCell id="0EEo3wZB-l8Ojv6wXw7C-33" value="d32" style="rounded=0;whiteSpace=wrap;html=1;container=0;" vertex="1" parent="1">
          <mxGeometry x="1640" y="480" width="40" height="40" as="geometry" />
        </mxCell>
        <mxCell id="0EEo3wZB-l8Ojv6wXw7C-34" value="d33" style="rounded=0;whiteSpace=wrap;html=1;container=0;" vertex="1" parent="1">
          <mxGeometry x="1680" y="480" width="40" height="40" as="geometry" />
        </mxCell>
        <mxCell id="0EEo3wZB-l8Ojv6wXw7C-35" value="d34" style="rounded=0;whiteSpace=wrap;html=1;container=0;" vertex="1" parent="1">
          <mxGeometry x="1720" y="480" width="40" height="40" as="geometry" />
        </mxCell>
        <mxCell id="0EEo3wZB-l8Ojv6wXw7C-36" value="d35" style="rounded=0;whiteSpace=wrap;html=1;container=0;" vertex="1" parent="1">
          <mxGeometry x="1480" y="520" width="40" height="40" as="geometry" />
        </mxCell>
        <mxCell id="0EEo3wZB-l8Ojv6wXw7C-37" value="d36" style="rounded=0;whiteSpace=wrap;html=1;container=0;" vertex="1" parent="1">
          <mxGeometry x="1520" y="520" width="40" height="40" as="geometry" />
        </mxCell>
        <mxCell id="0EEo3wZB-l8Ojv6wXw7C-38" value="d37" style="rounded=0;whiteSpace=wrap;html=1;container=0;" vertex="1" parent="1">
          <mxGeometry x="1560" y="520" width="40" height="40" as="geometry" />
        </mxCell>
        <mxCell id="0EEo3wZB-l8Ojv6wXw7C-39" value="d38" style="rounded=0;whiteSpace=wrap;html=1;container=0;fillColor=#dae8fc;strokeColor=#6c8ebf;" vertex="1" parent="1">
          <mxGeometry x="1600" y="520" width="40" height="40" as="geometry" />
        </mxCell>
        <mxCell id="0EEo3wZB-l8Ojv6wXw7C-40" value="d39" style="rounded=0;whiteSpace=wrap;html=1;container=0;" vertex="1" parent="1">
          <mxGeometry x="1640" y="520" width="40" height="40" as="geometry" />
        </mxCell>
        <mxCell id="0EEo3wZB-l8Ojv6wXw7C-41" value="d40" style="rounded=0;whiteSpace=wrap;html=1;container=0;" vertex="1" parent="1">
          <mxGeometry x="1680" y="520" width="40" height="40" as="geometry" />
        </mxCell>
        <mxCell id="0EEo3wZB-l8Ojv6wXw7C-42" value="d41" style="rounded=0;whiteSpace=wrap;html=1;container=0;" vertex="1" parent="1">
          <mxGeometry x="1720" y="520" width="40" height="40" as="geometry" />
        </mxCell>
        <mxCell id="0EEo3wZB-l8Ojv6wXw7C-43" value="d42" style="rounded=0;whiteSpace=wrap;html=1;container=0;" vertex="1" parent="1">
          <mxGeometry x="1480" y="560" width="40" height="40" as="geometry" />
        </mxCell>
        <mxCell id="0EEo3wZB-l8Ojv6wXw7C-44" value="d43" style="rounded=0;whiteSpace=wrap;html=1;container=0;" vertex="1" parent="1">
          <mxGeometry x="1520" y="560" width="40" height="40" as="geometry" />
        </mxCell>
        <mxCell id="0EEo3wZB-l8Ojv6wXw7C-45" value="d44" style="rounded=0;whiteSpace=wrap;html=1;container=0;" vertex="1" parent="1">
          <mxGeometry x="1560" y="560" width="40" height="40" as="geometry" />
        </mxCell>
        <mxCell id="0EEo3wZB-l8Ojv6wXw7C-46" value="d45" style="rounded=0;whiteSpace=wrap;html=1;container=0;" vertex="1" parent="1">
          <mxGeometry x="1600" y="560" width="40" height="40" as="geometry" />
        </mxCell>
        <mxCell id="0EEo3wZB-l8Ojv6wXw7C-47" value="d46" style="rounded=0;whiteSpace=wrap;html=1;container=0;" vertex="1" parent="1">
          <mxGeometry x="1640" y="560" width="40" height="40" as="geometry" />
        </mxCell>
        <mxCell id="0EEo3wZB-l8Ojv6wXw7C-48" value="d47" style="rounded=0;whiteSpace=wrap;html=1;container=0;" vertex="1" parent="1">
          <mxGeometry x="1680" y="560" width="40" height="40" as="geometry" />
        </mxCell>
        <mxCell id="0EEo3wZB-l8Ojv6wXw7C-49" value="d48" style="rounded=0;whiteSpace=wrap;html=1;container=0;" vertex="1" parent="1">
          <mxGeometry x="1720" y="560" width="40" height="40" as="geometry" />
        </mxCell>
        <mxCell id="0EEo3wZB-l8Ojv6wXw7C-50" value="d10" style="rounded=0;whiteSpace=wrap;html=1;container=0;" vertex="1" parent="1">
          <mxGeometry x="1600" y="360" width="40" height="40" as="geometry" />
        </mxCell>
        <mxCell id="0EEo3wZB-l8Ojv6wXw7C-51" value="d4" style="rounded=0;whiteSpace=wrap;html=1;container=0;" vertex="1" parent="1">
          <mxGeometry x="1640" y="320" width="40" height="40" as="geometry" />
        </mxCell>
        <mxCell id="0EEo3wZB-l8Ojv6wXw7C-52" value="d5" style="rounded=0;whiteSpace=wrap;html=1;container=0;" vertex="1" parent="1">
          <mxGeometry x="1680" y="320" width="40" height="40" as="geometry" />
        </mxCell>
        <mxCell id="0EEo3wZB-l8Ojv6wXw7C-53" value="d6" style="rounded=0;whiteSpace=wrap;html=1;container=0;" vertex="1" parent="1">
          <mxGeometry x="1720" y="320" width="40" height="40" as="geometry" />
        </mxCell>
        <mxCell id="0EEo3wZB-l8Ojv6wXw7C-54" value="d27" style="rounded=0;whiteSpace=wrap;html=1;container=0;" vertex="1" parent="1">
          <mxGeometry x="1720" y="440" width="40" height="40" as="geometry" />
        </mxCell>
        <mxCell id="0EEo3wZB-l8Ojv6wXw7C-55" value="d34" style="rounded=0;whiteSpace=wrap;html=1;container=0;" vertex="1" parent="1">
          <mxGeometry x="1720" y="480" width="40" height="40" as="geometry" />
        </mxCell>
        <mxCell id="0EEo3wZB-l8Ojv6wXw7C-56" value="d33" style="rounded=0;whiteSpace=wrap;html=1;container=0;" vertex="1" parent="1">
          <mxGeometry x="1680" y="480" width="40" height="40" as="geometry" />
        </mxCell>
        <mxCell id="0EEo3wZB-l8Ojv6wXw7C-57" value="d40" style="rounded=0;whiteSpace=wrap;html=1;container=0;" vertex="1" parent="1">
          <mxGeometry x="1680" y="520" width="40" height="40" as="geometry" />
        </mxCell>
        <mxCell id="0EEo3wZB-l8Ojv6wXw7C-58" value="d48" style="rounded=0;whiteSpace=wrap;html=1;container=0;" vertex="1" parent="1">
          <mxGeometry x="1720" y="560" width="40" height="40" as="geometry" />
        </mxCell>
        <mxCell id="0EEo3wZB-l8Ojv6wXw7C-59" value="d41" style="rounded=0;whiteSpace=wrap;html=1;container=0;" vertex="1" parent="1">
          <mxGeometry x="1720" y="520" width="40" height="40" as="geometry" />
        </mxCell>
        <mxCell id="0EEo3wZB-l8Ojv6wXw7C-60" value="d34" style="rounded=0;whiteSpace=wrap;html=1;container=0;" vertex="1" parent="1">
          <mxGeometry x="1720" y="480" width="40" height="40" as="geometry" />
        </mxCell>
        <mxCell id="0EEo3wZB-l8Ojv6wXw7C-61" value="d27" style="rounded=0;whiteSpace=wrap;html=1;container=0;" vertex="1" parent="1">
          <mxGeometry x="1720" y="440" width="40" height="40" as="geometry" />
        </mxCell>
        <mxCell id="0EEo3wZB-l8Ojv6wXw7C-62" value="d33" style="rounded=0;whiteSpace=wrap;html=1;container=0;" vertex="1" parent="1">
          <mxGeometry x="1680" y="480" width="40" height="40" as="geometry" />
        </mxCell>
        <mxCell id="0EEo3wZB-l8Ojv6wXw7C-63" value="d40" style="rounded=0;whiteSpace=wrap;html=1;container=0;" vertex="1" parent="1">
          <mxGeometry x="1680" y="520" width="40" height="40" as="geometry" />
        </mxCell>
        <mxCell id="0EEo3wZB-l8Ojv6wXw7C-64" value="d47" style="rounded=0;whiteSpace=wrap;html=1;container=0;" vertex="1" parent="1">
          <mxGeometry x="1680" y="560" width="40" height="40" as="geometry" />
        </mxCell>
        <mxCell id="0EEo3wZB-l8Ojv6wXw7C-65" value="d46" style="rounded=0;whiteSpace=wrap;html=1;container=0;" vertex="1" parent="1">
          <mxGeometry x="1640" y="560" width="40" height="40" as="geometry" />
        </mxCell>
        <mxCell id="0EEo3wZB-l8Ojv6wXw7C-66" value="d39" style="rounded=0;whiteSpace=wrap;html=1;container=0;" vertex="1" parent="1">
          <mxGeometry x="1640" y="520" width="40" height="40" as="geometry" />
        </mxCell>
        <mxCell id="0EEo3wZB-l8Ojv6wXw7C-67" value="d45" style="rounded=0;whiteSpace=wrap;html=1;container=0;" vertex="1" parent="1">
          <mxGeometry x="1600" y="560" width="40" height="40" as="geometry" />
        </mxCell>
        <mxCell id="0EEo3wZB-l8Ojv6wXw7C-68" value="d21" style="rounded=0;whiteSpace=wrap;html=1;container=0;" vertex="1" parent="1">
          <mxGeometry x="1480" y="440" width="40" height="40" as="geometry" />
        </mxCell>
        <mxCell id="0EEo3wZB-l8Ojv6wXw7C-69" value="d14" style="rounded=0;whiteSpace=wrap;html=1;container=0;" vertex="1" parent="1">
          <mxGeometry x="1480" y="400" width="40" height="40" as="geometry" />
        </mxCell>
        <mxCell id="0EEo3wZB-l8Ojv6wXw7C-70" value="d15" style="rounded=0;whiteSpace=wrap;html=1;container=0;" vertex="1" parent="1">
          <mxGeometry x="1520" y="400" width="40" height="40" as="geometry" />
        </mxCell>
        <mxCell id="0EEo3wZB-l8Ojv6wXw7C-71" value="d7" style="rounded=0;whiteSpace=wrap;html=1;container=0;" vertex="1" parent="1">
          <mxGeometry x="1480" y="360" width="40" height="40" as="geometry" />
        </mxCell>
        <mxCell id="0EEo3wZB-l8Ojv6wXw7C-72" value="d8" style="rounded=0;whiteSpace=wrap;html=1;container=0;" vertex="1" parent="1">
          <mxGeometry x="1520" y="360" width="40" height="40" as="geometry" />
        </mxCell>
        <mxCell id="0EEo3wZB-l8Ojv6wXw7C-73" value="d9" style="rounded=0;whiteSpace=wrap;html=1;container=0;" vertex="1" parent="1">
          <mxGeometry x="1560" y="360" width="40" height="40" as="geometry" />
        </mxCell>
        <mxCell id="0EEo3wZB-l8Ojv6wXw7C-74" value="d48" style="rounded=0;whiteSpace=wrap;html=1;container=0;" vertex="1" parent="1">
          <mxGeometry x="1720" y="560" width="40" height="40" as="geometry" />
        </mxCell>
        <mxCell id="0EEo3wZB-l8Ojv6wXw7C-75" value="d41" style="rounded=0;whiteSpace=wrap;html=1;container=0;" vertex="1" parent="1">
          <mxGeometry x="1720" y="520" width="40" height="40" as="geometry" />
        </mxCell>
        <mxCell id="0EEo3wZB-l8Ojv6wXw7C-76" value="d34" style="rounded=0;whiteSpace=wrap;html=1;container=0;" vertex="1" parent="1">
          <mxGeometry x="1720" y="480" width="40" height="40" as="geometry" />
        </mxCell>
        <mxCell id="0EEo3wZB-l8Ojv6wXw7C-77" value="d27" style="rounded=0;whiteSpace=wrap;html=1;container=0;fillColor=#dae8fc;strokeColor=#6c8ebf;" vertex="1" parent="1">
          <mxGeometry x="1720" y="440" width="40" height="40" as="geometry" />
        </mxCell>
        <mxCell id="0EEo3wZB-l8Ojv6wXw7C-78" value="d33" style="rounded=0;whiteSpace=wrap;html=1;container=0;" vertex="1" parent="1">
          <mxGeometry x="1680" y="480" width="40" height="40" as="geometry" />
        </mxCell>
        <mxCell id="0EEo3wZB-l8Ojv6wXw7C-79" value="d40" style="rounded=0;whiteSpace=wrap;html=1;container=0;" vertex="1" parent="1">
          <mxGeometry x="1680" y="520" width="40" height="40" as="geometry" />
        </mxCell>
        <mxCell id="0EEo3wZB-l8Ojv6wXw7C-80" value="d47" style="rounded=0;whiteSpace=wrap;html=1;container=0;" vertex="1" parent="1">
          <mxGeometry x="1680" y="560" width="40" height="40" as="geometry" />
        </mxCell>
        <mxCell id="0EEo3wZB-l8Ojv6wXw7C-81" value="d46" style="rounded=0;whiteSpace=wrap;html=1;container=0;" vertex="1" parent="1">
          <mxGeometry x="1640" y="560" width="40" height="40" as="geometry" />
        </mxCell>
        <mxCell id="0EEo3wZB-l8Ojv6wXw7C-82" value="d39" style="rounded=0;whiteSpace=wrap;html=1;container=0;" vertex="1" parent="1">
          <mxGeometry x="1640" y="520" width="40" height="40" as="geometry" />
        </mxCell>
        <mxCell id="0EEo3wZB-l8Ojv6wXw7C-83" value="d45" style="rounded=0;whiteSpace=wrap;html=1;container=0;fillColor=#dae8fc;strokeColor=#6c8ebf;" vertex="1" parent="1">
          <mxGeometry x="1600" y="560" width="40" height="40" as="geometry" />
        </mxCell>
        <mxCell id="0EEo3wZB-l8Ojv6wXw7C-84" value="d21" style="rounded=0;whiteSpace=wrap;html=1;container=0;fillColor=#dae8fc;strokeColor=#6c8ebf;" vertex="1" parent="1">
          <mxGeometry x="1480" y="440" width="40" height="40" as="geometry" />
        </mxCell>
        <mxCell id="0EEo3wZB-l8Ojv6wXw7C-85" value="d14" style="rounded=0;whiteSpace=wrap;html=1;container=0;" vertex="1" parent="1">
          <mxGeometry x="1480" y="400" width="40" height="40" as="geometry" />
        </mxCell>
        <mxCell id="0EEo3wZB-l8Ojv6wXw7C-86" value="d15" style="rounded=0;whiteSpace=wrap;html=1;container=0;" vertex="1" parent="1">
          <mxGeometry x="1520" y="400" width="40" height="40" as="geometry" />
        </mxCell>
        <mxCell id="0EEo3wZB-l8Ojv6wXw7C-87" value="d7" style="rounded=0;whiteSpace=wrap;html=1;container=0;" vertex="1" parent="1">
          <mxGeometry x="1480" y="360" width="40" height="40" as="geometry" />
        </mxCell>
        <mxCell id="0EEo3wZB-l8Ojv6wXw7C-88" value="d8" style="rounded=0;whiteSpace=wrap;html=1;container=0;" vertex="1" parent="1">
          <mxGeometry x="1520" y="360" width="40" height="40" as="geometry" />
        </mxCell>
        <mxCell id="0EEo3wZB-l8Ojv6wXw7C-89" value="d9" style="rounded=0;whiteSpace=wrap;html=1;container=0;" vertex="1" parent="1">
          <mxGeometry x="1560" y="360" width="40" height="40" as="geometry" />
        </mxCell>
        <mxCell id="0EEo3wZB-l8Ojv6wXw7C-90" value="d2" style="rounded=0;whiteSpace=wrap;html=1;container=0;" vertex="1" parent="1">
          <mxGeometry x="1560" y="320" width="40" height="40" as="geometry" />
        </mxCell>
        <mxCell id="0EEo3wZB-l8Ojv6wXw7C-91" value="d3" style="rounded=0;whiteSpace=wrap;html=1;container=0;fillColor=#dae8fc;strokeColor=#6c8ebf;" vertex="1" parent="1">
          <mxGeometry x="1600" y="320" width="40" height="40" as="geometry" />
        </mxCell>
        <mxCell id="0EEo3wZB-l8Ojv6wXw7C-92" value="d43" style="rounded=0;whiteSpace=wrap;html=1;container=0;" vertex="1" parent="1">
          <mxGeometry x="1520" y="560" width="40" height="40" as="geometry" />
        </mxCell>
        <mxCell id="0EEo3wZB-l8Ojv6wXw7C-93" value="d42" style="rounded=0;whiteSpace=wrap;html=1;container=0;" vertex="1" parent="1">
          <mxGeometry x="1480" y="560" width="40" height="40" as="geometry" />
        </mxCell>
        <mxCell id="0EEo3wZB-l8Ojv6wXw7C-94" value="d35" style="rounded=0;whiteSpace=wrap;html=1;container=0;" vertex="1" parent="1">
          <mxGeometry x="1480" y="520" width="40" height="40" as="geometry" />
        </mxCell>
        <mxCell id="0EEo3wZB-l8Ojv6wXw7C-95" value="d36" style="rounded=0;whiteSpace=wrap;html=1;container=0;" vertex="1" parent="1">
          <mxGeometry x="1520" y="520" width="40" height="40" as="geometry" />
        </mxCell>
        <mxCell id="0EEo3wZB-l8Ojv6wXw7C-96" value="d37" style="rounded=0;whiteSpace=wrap;html=1;container=0;" vertex="1" parent="1">
          <mxGeometry x="1560" y="520" width="40" height="40" as="geometry" />
        </mxCell>
        <mxCell id="0EEo3wZB-l8Ojv6wXw7C-97" value="d5" style="rounded=0;whiteSpace=wrap;html=1;container=0;" vertex="1" parent="1">
          <mxGeometry x="1680" y="320" width="40" height="40" as="geometry" />
        </mxCell>
        <mxCell id="0EEo3wZB-l8Ojv6wXw7C-98" value="d6" style="rounded=0;whiteSpace=wrap;html=1;container=0;" vertex="1" parent="1">
          <mxGeometry x="1720" y="320" width="40" height="40" as="geometry" />
        </mxCell>
        <mxCell id="0EEo3wZB-l8Ojv6wXw7C-99" value="d13" style="rounded=0;whiteSpace=wrap;html=1;container=0;" vertex="1" parent="1">
          <mxGeometry x="1720" y="360" width="40" height="40" as="geometry" />
        </mxCell>
        <mxCell id="0EEo3wZB-l8Ojv6wXw7C-100" value="d12" style="rounded=0;whiteSpace=wrap;html=1;container=0;" vertex="1" parent="1">
          <mxGeometry x="1680" y="360" width="40" height="40" as="geometry" />
        </mxCell>
        <mxCell id="0EEo3wZB-l8Ojv6wXw7C-101" value="d10" style="rounded=0;whiteSpace=wrap;html=1;container=0;fillColor=#dae8fc;strokeColor=#6c8ebf;" vertex="1" parent="1">
          <mxGeometry x="1600" y="360" width="40" height="40" as="geometry" />
        </mxCell>
        <mxCell id="0EEo3wZB-l8Ojv6wXw7C-102" value="0" style="text;html=1;align=center;verticalAlign=middle;whiteSpace=wrap;rounded=0;" vertex="1" parent="1">
          <mxGeometry x="1485" y="280" width="30" height="30" as="geometry" />
        </mxCell>
        <mxCell id="0EEo3wZB-l8Ojv6wXw7C-103" value="1" style="text;html=1;align=center;verticalAlign=middle;whiteSpace=wrap;rounded=0;" vertex="1" parent="1">
          <mxGeometry x="1525" y="280" width="30" height="30" as="geometry" />
        </mxCell>
        <mxCell id="0EEo3wZB-l8Ojv6wXw7C-104" value="2" style="text;html=1;align=center;verticalAlign=middle;whiteSpace=wrap;rounded=0;" vertex="1" parent="1">
          <mxGeometry x="1565" y="280" width="30" height="30" as="geometry" />
        </mxCell>
        <mxCell id="0EEo3wZB-l8Ojv6wXw7C-106" value="3" style="text;html=1;align=center;verticalAlign=middle;whiteSpace=wrap;rounded=0;" vertex="1" parent="1">
          <mxGeometry x="1605" y="280" width="30" height="30" as="geometry" />
        </mxCell>
        <mxCell id="0EEo3wZB-l8Ojv6wXw7C-108" value="4" style="text;html=1;align=center;verticalAlign=middle;whiteSpace=wrap;rounded=0;" vertex="1" parent="1">
          <mxGeometry x="1645" y="280" width="30" height="30" as="geometry" />
        </mxCell>
        <mxCell id="0EEo3wZB-l8Ojv6wXw7C-109" value="5" style="text;html=1;align=center;verticalAlign=middle;whiteSpace=wrap;rounded=0;" vertex="1" parent="1">
          <mxGeometry x="1685" y="280" width="30" height="30" as="geometry" />
        </mxCell>
        <mxCell id="0EEo3wZB-l8Ojv6wXw7C-110" value="6" style="text;html=1;align=center;verticalAlign=middle;whiteSpace=wrap;rounded=0;" vertex="1" parent="1">
          <mxGeometry x="1725" y="280" width="30" height="30" as="geometry" />
        </mxCell>
        <mxCell id="0EEo3wZB-l8Ojv6wXw7C-111" value="COLS - 1" style="text;html=1;align=center;verticalAlign=middle;whiteSpace=wrap;rounded=0;" vertex="1" parent="1">
          <mxGeometry x="1710" y="240" width="60" height="30" as="geometry" />
        </mxCell>
        <mxCell id="0EEo3wZB-l8Ojv6wXw7C-120" value="0" style="text;html=1;align=center;verticalAlign=middle;whiteSpace=wrap;rounded=0;" vertex="1" parent="1">
          <mxGeometry x="1440" y="325" width="30" height="30" as="geometry" />
        </mxCell>
        <mxCell id="0EEo3wZB-l8Ojv6wXw7C-121" value="1" style="text;html=1;align=center;verticalAlign=middle;whiteSpace=wrap;rounded=0;" vertex="1" parent="1">
          <mxGeometry x="1440" y="365" width="30" height="30" as="geometry" />
        </mxCell>
        <mxCell id="0EEo3wZB-l8Ojv6wXw7C-122" value="3" style="text;html=1;align=center;verticalAlign=middle;whiteSpace=wrap;rounded=0;" vertex="1" parent="1">
          <mxGeometry x="1440" y="445" width="30" height="30" as="geometry" />
        </mxCell>
        <mxCell id="0EEo3wZB-l8Ojv6wXw7C-124" value="2" style="text;html=1;align=center;verticalAlign=middle;whiteSpace=wrap;rounded=0;" vertex="1" parent="1">
          <mxGeometry x="1440" y="405" width="30" height="30" as="geometry" />
        </mxCell>
        <mxCell id="0EEo3wZB-l8Ojv6wXw7C-125" value="4" style="text;html=1;align=center;verticalAlign=middle;whiteSpace=wrap;rounded=0;" vertex="1" parent="1">
          <mxGeometry x="1440" y="485" width="30" height="30" as="geometry" />
        </mxCell>
        <mxCell id="0EEo3wZB-l8Ojv6wXw7C-126" value="5" style="text;html=1;align=center;verticalAlign=middle;whiteSpace=wrap;rounded=0;" vertex="1" parent="1">
          <mxGeometry x="1440" y="525" width="30" height="30" as="geometry" />
        </mxCell>
        <mxCell id="0EEo3wZB-l8Ojv6wXw7C-127" value="6" style="text;html=1;align=center;verticalAlign=middle;whiteSpace=wrap;rounded=0;" vertex="1" parent="1">
          <mxGeometry x="1440" y="565" width="30" height="30" as="geometry" />
        </mxCell>
      </root>
    </mxGraphModel>
  </diagram>
</mxfile>
